<svg xmlns="http://www.w3.org/2000/svg" xmlns:xlink="http://www.w3.org/1999/xlink" version="1.1" width="482.78486" height="169.27301" viewBox="0 0 482.78486 169.27301">
<defs>
<clipPath id="clip_0">
<path transform="matrix(1,0,0,-1,-2.98015,540)" d="M2.98015 370.727H485.765V540H2.98015Z" fill-rule="evenodd"/>
</clipPath>
<path id="font_1_38" d="M.66308596 .15820313V.05078125C.5914714 .01171875 .50878909-.0078125 .41503907-.0078125 .3388672-.0078125 .2742513 .007497152 .2211914 .038116456 .16813152 .068735759 .12613933 .11092123 .095214847 .16467285 .06429037 .21842449 .048828126 .27657066 .048828126 .33911134 .048828126 .4384664 .084228519 .52201846 .1550293 .58976748 .22583008 .6575267 .31315104 .69140627 .4169922 .69140627 .48860679 .69140627 .5681966 .67285159 .6557617 .6357422V.53027346C.5760091 .5758464 .49804688 .5986328 .421875 .5986328 .34375 .5986328 .27888999 .57394918 .22729492 .5245819 .17569988 .47522483 .14990235 .41340129 .14990235 .33911134 .14990235 .26417033 .17529297 .20258586 .22607422 .15435791 .27685548 .10614014 .34179688 .08203125 .42089845 .08203125 .50358077 .08203125 .5843099 .107421878 .66308596 .15820313Z"/>
<path id="font_1_82" d="M.27783204 .4501953C.3461914 .4501953 .40299479 .42814128 .4482422 .3840332 .4934896 .33992515 .5161133 .28450523 .5161133 .21777344 .5161133 .1529948 .49316407 .09920248 .44726563 .056396486 .4013672 .013590495 .34358726-.0078125 .27392579-.0078125 .20654297-.0078125 .15022786 .013916016 .10498047 .057373048 .059733076 .10083008 .037109376 .15511067 .037109376 .22021485 .037109376 .28597007 .059977216 .34073893 .10571289 .38452149 .15144857 .42830406 .20882161 .4501953 .27783204 .4501953M.27294923 .3701172C.23030599 .3701172 .1953125 .35611979 .16796875 .328125 .140625 .30013023 .12695313 .2644857 .12695313 .2211914 .12695313 .17822266 .14095052 .14314778 .16894531 .1159668 .19694011 .088785808 .23291016 .07519531 .27685548 .07519531 .32047526 .07519531 .35620118 .08894857 .3840332 .11645508 .41186524 .1439616 .42578126 .17919922 .42578126 .22216797 .42578126 .2648112 .41129557 .30013023 .38232423 .328125 .35335288 .35611979 .31689454 .3701172 .27294923 .3701172Z"/>
<path id="font_1_81" d="M.15185547 .44921876V.3935547C.19156902 .43717448 .23665364 .45898438 .28710938 .45898438 .31510417 .45898438 .34114585 .4517263 .36523438 .43721009 .3893229 .42269389 .40763346 .40279136 .42016603 .37750245 .43269859 .35222373 .43896485 .31218467 .43896485 .25738526V0H.35009767V.2565155C.35009767 .30252586 .34309898 .33540345 .32910157 .35514833 .31510417 .3748932 .29166667 .38476563 .25878907 .38476563 .21679688 .38476563 .18115235 .36393229 .15185547 .32226563V0H.061035158V.44921876H.15185547Z"/>
<path id="font_1_87" d="M0 .3779297 .16699219 .5419922V.44921876H.30908204V.36914063H.16699219V.14929199C.16699219 .09794108 .1883138 .072265628 .23095703 .072265628 .26285807 .072265628 .29654948 .08268229 .33203126 .103515628V.020874024C.29785157 .0017496744 .26057945-.0078125 .22021485-.0078125 .17952474-.0078125 .14567058 .0040690104 .118652347 .027832032 .110188808 .03499349 .1031901 .04305013 .09765625 .052001954 .0921224 .060953779 .08748373 .07267252 .083740238 .0871582 .07999674 .10164388 .078125 .12923177 .078125 .16992188V.36914063H0V.3779297Z"/>
<path id="font_1_68" d="M.34521485 .2707672V.07962036C.34521485 .06430054 .3504232 .056640626 .36083985 .056640626 .37158204 .056640626 .38834635 .06477865 .4111328 .08105469V.026367188C.39095054 .013539632 .37475587 .004796346 .36254884 .0001373291 .3503418-.004511515 .3375651-.0068359377 .32421876-.0068359377 .2861328-.0068359377 .26367188 .007975261 .25683595 .037597658 .21907552 .007975261 .1788737-.0068359377 .13623047-.0068359377 .10498047-.0068359377 .078938808 .0035146077 .05810547 .024215699 .037272138 .04492696 .026855469 .07093811 .026855469 .102249149 .026855469 .13061016 .037027997 .15596009 .057373048 .17829895 .0777181 .20063782 .10660807 .21832784 .14404297 .23136902L.2578125 .2705078V.2945404C.2578125 .34883119 .23079427 .37597657 .17675781 .37597657 .1282552 .37597657 .08105469 .35091148 .03515625 .30078126V.39794923C.06966146 .4386393 .11930338 .45898438 .18408203 .45898438 .23258464 .45898438 .27148438 .4462738 .30078126 .42085267 .31054688 .41270448 .31933595 .40186564 .32714845 .38833619 .33496095 .3748169 .33992515 .3612925 .34204103 .34776307 .3441569 .33424378 .34521485 .3085785 .34521485 .2707672M.2578125 .08935547V.22265625L.19824219 .19970703C.16796875 .18766277 .14656575 .17553711 .1340332 .16333008 .12150065 .15112305 .115234378 .13590496 .115234378 .11767578 .115234378 .099121097 .12117513 .083984378 .13305664 .072265628 .14493816 .060546876 .16031902 .0546875 .17919922 .0546875 .20751953 .0546875 .23372396 .06624349 .2578125 .08935547Z"/>
<path id="font_1_70" d="M.39990235 .10546875V.017196656C.355306 .0005238851 .3116862-.0078125 .26904298-.0078125 .19873047-.0078125 .1426595 .013061523 .10083008 .05480957 .059000654 .09656779 .038085939 .15251668 .038085939 .22265625 .038085939 .29343669 .05843099 .3505198 .099121097 .39390565 .1398112 .43729148 .19335938 .45898438 .25976563 .45898438 .2828776 .45898438 .30362956 .4567871 .32202149 .45239259 .34041343 .44799806 .3631185 .43977867 .39013673 .42773438V.3330078C.34521485 .36165367 .3035482 .37597657 .26513673 .37597657 .22509766 .37597657 .19222005 .36185203 .1665039 .3336029 .14078777 .3053538 .12792969 .26934815 .12792969 .22558594 .12792969 .17953491 .1418457 .14295452 .16967774 .11584473 .19750977 .08874512 .23502605 .07519531 .28222657 .07519531 .31640626 .07519531 .3556315 .08528646 .39990235 .10546875Z"/>
<path id="font_1_86" d="M.041015626 .032226564V.12792969C.06608073 .11049398 .09171549 .09636942 .11791992 .08555603 .14412435 .07474264 .16617839 .06933594 .18408203 .06933594 .20263672 .06933594 .21858724 .07388306 .2319336 .082977298 .24527996 .0920817 .25195313 .1029714 .25195313 .11564636 .25195313 .12865703 .24763997 .13946533 .23901367 .14807129 .23038738 .15668743 .2117513 .16914876 .18310547 .18545532 .1258138 .21742757 .08829752 .2447459 .07055664 .26741029 .052815755 .29008485 .043945314 .31479899 .043945314 .34155274 .043945314 .37612916 .057373048 .40434266 .084228519 .42619325 .111083988 .448054 .14567058 .45898438 .18798828 .45898438 .2319336 .45898438 .27701823 .4466146 .3232422 .421875V.33398438C.2705078 .3658854 .2273763 .38183595 .19384766 .38183595 .17659505 .38183595 .16267903 .3781484 .15209961 .37077333 .14152019 .36339823 .13623047 .35364787 .13623047 .34152223 .13623047 .33103434 .1410319 .32103984 .15063477 .3115387 .16023763 .30203758 .17708333 .2906138 .20117188 .27726747L.23291016 .25920106C.30777995 .21682231 .34521485 .1698761 .34521485 .11836243 .34521485 .08151754 .33081056 .051274618 .30200196 .027633667 .27319337 .004002889 .23616536-.0078125 .19091797-.0078125 .16422527-.0078125 .14046224-.004964193 .119628909 .0007324219 .09879557 .0064290368 .07259115 .016927084 .041015626 .032226564Z"/>
<path id="font_1_71" d="M.36279298 .6826172H.45214845V0H.26220704C.19580078 0 .14282227 .020996094 .103271488 .06298828 .0637207 .10498047 .043945314 .16129558 .043945314 .2319336 .043945314 .2980143 .064697269 .3523763 .10620117 .39501954 .14770508 .43766276 .2006836 .45898438 .26513673 .45898438 .29508464 .45898438 .32763673 .45263673 .36279298 .4399414V.6826172M.36279298 .076171878V.36083985C.3351237 .37483726 .3071289 .38183595 .2788086 .38183595 .23453777 .38183595 .19930013 .36735026 .1730957 .3383789 .14689128 .30940757 .13378906 .27034507 .13378906 .2211914 .13378906 .17496746 .1451823 .13932292 .16796875 .11425781 .18164063 .09928385 .1961263 .08919271 .21142578 .083984378 .22672527 .07877604 .25423179 .076171878 .2939453 .076171878H.36279298Z"/>
<path id="font_1_72" d="M.44580079 .21679688H.12988281C.13216146 .17382813 .14656575 .13964844 .1730957 .11425781 .19962566 .08886719 .23388672 .076171878 .2758789 .076171878 .33447267 .076171878 .38850913 .09440104 .43798829 .13085938V.043945314C.41064454 .025716147 .38354493 .0126953129 .35668946 .0048828127 .32983399-.0029296876 .29833985-.0068359377 .26220704-.0068359377 .21272786-.0068359377 .1726888 .0034383138 .14208985 .023986817 .11149088 .04453532 .086995448 .07217916 .068603519 .106918338 .05021159 .14166768 .041015626 .18187459 .041015626 .22753906 .041015626 .29604087 .060384115 .3517405 .099121097 .39463807 .13785808 .4375356 .18815105 .45898438 .25 .45898438 .3095703 .45898438 .35709635 .43806459 .39257813 .39622499 .4280599 .35439555 .44580079 .29834495 .44580079 .22807312V.21679688M.13183594 .2705078H.35791017C.3556315 .30614219 .3450521 .3336029 .32617188 .35289 .30729167 .3721873 .28190104 .38183595 .25 .38183595 .21809896 .38183595 .1919759 .3721873 .17163086 .35289 .15128581 .3336029 .13802083 .30614219 .13183594 .2705078Z"/>
<clipPath id="clip_2">
<path transform="matrix(1,0,0,-1,-2.98015,540)" d="M18.36 493.871H52.393V527.76H18.36Z"/>
</clipPath>
<path id="font_1_55" d="M.017089844 .6826172H.58691409V.5957031H.3491211V0H.25097657V.5957031H.017089844V.6826172Z"/>
<path id="font_1_85" d="M.15820313 .44921876V.34716798L.16308594 .35498048C.20605469 .4243164 .24902344 .45898438 .2919922 .45898438 .32552085 .45898438 .3605143 .44205729 .39697267 .40820313L.35009767 .33007813C.3191732 .359375 .29052735 .37402345 .26416017 .37402345 .23551433 .37402345 .21069336 .36031596 .18969727 .332901 .16870117 .30548606 .15820313 .27301026 .15820313 .23547364V0H.068847659V.44921876H.15820313Z"/>
<path id="font_1_74" d="M.040039064 .2939453C.040039064 .34179688 .05753581 .37963868 .0925293 .4074707 .12752278 .43530274 .17529297 .44921876 .23583985 .44921876H.42089845V.3798828H.33007813C.34765626 .36197917 .35986329 .34570313 .36669923 .3310547 .37353517 .31640626 .37695313 .29964195 .37695313 .28076173 .37695313 .25732423 .37027995 .23429363 .3569336 .21166992 .34358726 .18904622 .32641603 .17171224 .30541993 .15966797 .28442384 .1476237 .25 .13802083 .20214844 .13085938 .1686198 .12596639 .15185547 .11439514 .15185547 .09614563 .15185547 .08570862 .15812175 .07714844 .1706543 .07046509 .18318685 .06378174 .20589192 .056854249 .23876953 .049682619 .29378257 .037628175 .32918296 .028177897 .3449707 .021331788 .36075846 .014485677 .375 .0047098796 .3876953-.0079956059 .4091797-.029510498 .41992188-.056569417 .41992188-.08917236 .41992188-.13186646 .4009603-.16592407 .3630371-.19134522 .32511393-.21677654 .27441407-.22949219 .2109375-.22949219 .14680989-.22949219 .09562174-.21669515 .057373048-.19110108 .01912435-.16551717 0-.13121541 0-.0881958 0-.027242026 .037597658 .012034099 .11279297 .029632569 .082845058 .048858644 .067871097 .06792704 .067871097 .08683777 .067871097 .10117086 .07430013 .114201869 .0871582 .12593079 .10001627 .13766988 .11735026 .14631145 .13916016 .15185547 .07307943 .18115235 .040039064 .22851563 .040039064 .2939453M.20703125 .3720703C.1829427 .3720703 .16243489 .36393229 .14550781 .34765626 .12858074 .33138023 .12011719 .31184898 .12011719 .2890625 .12011719 .26595054 .12841797 .24682617 .14501953 .23168946 .1616211 .21655274 .18261719 .20898438 .20800781 .20898438 .23307292 .20898438 .25398765 .2167155 .27075196 .23217774 .28751628 .24763997 .29589845 .2669271 .29589845 .29003907 .29589845 .31347657 .2874349 .3330078 .2705078 .3486328 .25358073 .3642578 .23242188 .3720703 .20703125 .3720703M.18603516-.021255494C.15608724-.021255494 .1315918-.02760315 .11254883-.040298463 .09350586-.052993776 .083984378-.069244388 .083984378-.08905029 .083984378-.13515218 .12565105-.15820313 .20898438-.15820313 .24837239-.15820313 .27888999-.15244039 .3005371-.14091492 .32218424-.12938945 .3330078-.1130778 .3330078-.09197998 .3330078-.07119751 .31933595-.054214479 .2919922-.041030885 .26464845-.02784729 .22932942-.021255494 .18603516-.021255494Z"/>
<path id="font_1_41" d="M.076171878 .6826172H.4399414V.5957031H.17382813V.40527345H.4399414V.31835938H.17382813V0H.076171878V.6826172Z"/>
<path id="font_1_88" d="M.3491211 0V.057617189C.33024089 .036956788 .30867515 .020884196 .28442384 .009399414 .26017253-.0020751954 .23600261-.0078125 .21191406-.0078125 .18359375-.0078125 .1574707-.0007324219 .13354492 .013427734 .10961914 .02758789 .091552738 .04679362 .0793457 .07104492 .06713867 .09529623 .061035158 .13557942 .061035158 .19189453V.44921876H.14990235V.19319153C.14990235 .14605205 .1566569 .11313375 .17016602 .094436649 .18367513 .07574972 .20735677 .06640625 .24121094 .06640625 .28352867 .06640625 .3194987 .08707682 .3491211 .12841797V.44921876H.43798829V0H.3491211Z"/>
<path id="font_1_76" d="M.10888672 .6386719C.123535159 .6386719 .1360677 .6336009 .14648438 .62345889 .15690105 .613327 .16210938 .6009013 .16210938 .58618167 .16210938 .57179769 .15690105 .55937197 .14648438 .5489044 .1360677 .5384369 .123535159 .5332031 .10888672 .5332031 .095214847 .5332031 .08317057 .53851827 .072753909 .54914858 .06233724 .55977889 .057128908 .5721232 .057128908 .58618167 .057128908 .59991458 .06233724 .61209616 .072753909 .62272647 .08317057 .63335677 .095214847 .6386719 .10888672 .6386719M.064941409 .44921876H.1538086V0H.064941409V.44921876Z"/>
<path id="font_3_296" d="M.40625 .6503906C.40625 .6484375 .40600587 .6452637 .40551759 .64086917 .4050293 .6364746 .40437828 .63151046 .40356446 .62597659 .40275065 .6204427 .40169273 .6147461 .40039063 .6088867 .39908854 .60302737 .39754234 .5975749 .39575196 .5925293 .39396159 .5874837 .3919271 .58341476 .38964845 .58032229 .38736979 .5772298 .38492839 .5756836 .38232423 .5756836 .3803711 .5756836 .3778483 .5761719 .37475587 .57714846 .37166343 .578125 .36816407 .5791829 .3642578 .58032229 .36035157 .5814616 .35587565 .58251956 .35083009 .5834961 .34578453 .58447268 .34033204 .58496096 .33447267 .58496096 .324056 .58496096 .3150228 .5834961 .30737306 .5805664 .2997233 .5776367 .2931315 .57299807 .28759767 .5666504 .2820638 .56030276 .27734376 .5520833 .2734375 .5419922 .26953126 .53190109 .26627604 .51985678 .26367188 .5058594L.25634767 .46875H.33544923C.34033204 .46875 .34375 .46720378 .34570313 .46411134 .34765626 .4610189 .3486328 .4560547 .3486328 .44921876 .3486328 .44596354 .34838868 .44173179 .3479004 .43652345 .3474121 .4313151 .34651695 .42569987 .34521485 .41967774 .34391276 .4136556 .34228517 .40771485 .34033204 .40185548 .3383789 .3959961 .33626304 .390625 .33398438 .3857422 .33170573 .38085938 .32902018 .37687174 .32592774 .3737793 .3228353 .37068687 .3194987 .36914063 .31591798 .36914063H.23583985L.15917969-.014038086C.15364583-.04107666 .14607747-.06485494 .13647461-.085372928 .12687175-.105901088 .114746097-.12308756 .100097659-.13693238 .08544922-.15077718 .068115238-.16119893 .048095704-.16819763 .028076172-.1752065 .0053710939-.17871094-.020019532-.17871094-.036946615-.17871094-.05110677-.17740886-.0625-.17480469-.07389323-.17220052-.081217449-.16959636-.084472659-.16699219-.08610026-.16503906-.087239589-.16292317-.087890628-.16064453-.088541667-.15836589-.08886719-.15511067-.08886719-.1508789-.08886719-.14892578-.08862305-.14567058-.088134769-.14111328-.087646488-.13655599-.08691406-.1315918-.0859375-.1262207-.08496094-.12084961-.083740238-.115234378-.08227539-.109375-.08081055-.103515628-.079182948-.09814453-.07739258-.09326172-.07560221-.088378909-.07356771-.08439127-.07128906-.08129883-.069010417-.07820638-.06640625-.076660159-.06347656-.076660159-.061523439-.076660159-.059570314-.076822917-.057617189-.07714844-.055664064-.07747396-.053548177-.07788086-.05126953-.07836914-.048990888-.07885742-.04630534-.07926432-.04321289-.079589847-.04012044-.07991537-.036132814-.080078128-.03125-.080078128-.020833334-.080078128-.01180013-.07852682-.0041503908-.075424198 .0034993489-.07233175 .0100911459-.06752523 .015625-.06100464 .021158854-.05448405 .025878907-.046086629 .029785157-.035812379 .033691408-.025538126 .037109376-.013066609 .040039064 .0016021729L.11376953 .36914063H.05908203C.05517578 .36914063 .052164716 .37052409 .050048829 .37329103 .04793294 .37605796 .046875 .38134767 .046875 .38916017 .046875 .39241538 .04711914 .39664714 .047607423 .40185548 .048095704 .4070638 .048909505 .41259767 .050048829 .41845704 .051188154 .4243164 .052571615 .43025718 .05419922 .4362793 .055826826 .44230143 .057942708 .44767253 .060546876 .45239259 .06315104 .45711265 .06599935 .4610189 .0690918 .46411134 .07218424 .46720378 .07584635 .46875 .080078128 .46875H.13378906L.1430664 .51708987C.14827474 .5444336 .15592449 .56852218 .16601563 .58935549 .17610677 .6101888 .18855794 .6276042 .20336914 .64160159 .21818035 .65559896 .2355957 .666097 .25561524 .6730957 .27563478 .6800944 .29833985 .68359377 .32373048 .68359377 .332194 .68359377 .34065757 .6831868 .3491211 .68237307 .35758464 .68155929 .36523438 .6804199 .3720703 .6789551 .37890626 .67749026 .38492839 .67578127 .39013673 .6738281 .39534507 .671875 .39892579 .6699219 .4008789 .66796877 .40283204 .6663411 .40421549 .6640625 .4050293 .6611328 .4058431 .6582031 .40625 .6546224 .40625 .6503906Z"/>
<clipPath id="clip_4">
<path transform="matrix(1,0,0,-1,-2.98015,540)" d="M114.36 493.728H144.332V523.559H114.36Z"/>
</clipPath>
<path id="font_1_3" d="M0 0Z"/>
<path id="font_1_44" d="M.076171878 .6826172H.17382813V0H.076171878V.6826172Z"/>
<path id="font_1_73" d="M.07324219 .44921876V.47613526C.07324219 .5485433 .08862305 .6025238 .119384769 .6380768 .15014649 .67362979 .18701172 .69140627 .22998047 .69140627 .24853516 .69140627 .2705078 .68847659 .29589845 .6826172V.5957031C.28157554 .60091146 .26790367 .6035156 .2548828 .6035156 .22005208 .6035156 .19588216 .59420779 .18237305 .57559207 .16886394 .5569763 .16210938 .5238342 .16210938 .47616578V.44921876H.2421875V.36914063H.16210938V0H.07324219V.36914063H.0087890629V.44921876H.07324219Z"/>
<path id="font_1_39" d="M.076171878 0V.6826172H.30615235C.39892579 .6826172 .47233073 .66867068 .5263672 .6407776 .5804036 .6128845 .6233724 .5718587 .65527346 .5177002 .6871745 .46355186 .703125 .4045105 .703125 .34057618 .703125 .29490153 .69433596 .2511851 .6767578 .20942688 .6591797 .16767884 .63411459 .13098145 .6015625 .09933472 .5683594 .066711429 .52978518 .04208374 .48583985 .02545166 .4601237 .015329997 .43652345 .008555095 .41503907 .005126953 .3935547 .0017089844 .35253907 0 .2919922 0H.076171878M.29589845 .5957031H.17382813V.08691406H.29882813C.34765626 .08691406 .38557945 .090260829 .41259767 .096954349 .43961589 .103647869 .4621582 .11213684 .4802246 .122421268 .49829103 .13270569 .5148112 .14535523 .52978518 .16036988 .5779622 .20934041 .6020508 .27120463 .6020508 .34596253 .6020508 .41941834 .5773112 .47932435 .52783206 .52568057 .50960287 .542984 .48868815 .5571849 .4650879 .5682831 .44148765 .5793813 .41910807 .5867259 .39794923 .5903168 .37679038 .59390768 .34277345 .5957031 .29589845 .5957031Z"/>
<path id="font_1_11" d="M.25585938 .69140627H.31103517C.27034507 .63079836 .24080403 .57898458 .22241211 .53596499 .20402019 .49295555 .19018555 .44366966 .1809082 .3881073 .17163086 .33254496 .16699219 .27885948 .16699219 .22705078 .16699219 .049123128 .21500652-.10305786 .31103517-.22949219H.25585938L.24121094-.21141052C.20442708-.16708882 .17716472-.13075257 .15942383-.10240173 .14168294-.0740509 .12402344-.03722636 .10644531 .008071899 .078125 .08040873 .063964847 .15437825 .063964847 .22998047 .063964847 .30688478 .078125 .38109843 .10644531 .45262147 .13476563 .52415469 .18457031 .6037496 .25585938 .69140627Z"/>
<path id="font_1_51" d="M.06982422 0V.6826172H.2861328C.35123698 .6826172 .40315757 .6650594 .44189454 .62994387 .4806315 .59483847 .5 .547699 .5 .4885254 .5 .4488627 .49007163 .41375224 .47021485 .38319398 .45035807 .3526357 .4231771 .33044435 .38867188 .31661988 .35416667 .30280558 .3046875 .29589845 .24023438 .29589845H.16796875V0H.06982422M.26904298 .5957031H.16796875V.3828125H.27490235C.31461589 .3828125 .34521485 .39215089 .36669923 .41082765 .3881836 .4295044 .39892579 .45621745 .39892579 .4909668 .39892579 .560791 .3556315 .5957031 .26904298 .5957031Z"/>
<path id="font_1_69" d="M.05908203 .6826172H.14794922V.4169922C.18636067 .44498698 .2273763 .45898438 .2709961 .45898438 .32796226 .45898438 .37451173 .4375 .41064454 .39453126 .44677735 .3515625 .46484376 .29638673 .46484376 .2290039 .46484376 .15673828 .44327799 .09920248 .40014649 .056396486 .35701499 .013590495 .2993164-.0078125 .22705078-.0078125 .19807942-.0078125 .16756185-.0047200524 .13549805 .0014648438 .10343424 .007659912 .07796224 .015482585 .05908203 .024932862V.6826172M.14794922 .33203126V.08886719C.17822266 .0797526 .20930989 .07519531 .24121094 .07519531 .28059898 .07519531 .31274415 .08919271 .33764649 .1171875 .36254884 .1451823 .375 .18115235 .375 .22509766 .375 .269694 .36336265 .3059896 .3400879 .33398438 .31681315 .36197917 .28645835 .37597657 .24902344 .37597657 .21582031 .37597657 .1821289 .36132813 .14794922 .33203126Z"/>
<path id="font_1_79" d="M.064941409 .6826172H.1538086V0H.064941409V.6826172Z"/>
<path id="font_1_12" d="M.06689453-.22949219H.012207031C.05452474-.1656189 .084635417-.111440028 .10253906-.06695557 .12044271-.022481284 .13378906 .026392619 .14257813 .07966614 .15136719 .13294983 .15576172 .18403118 .15576172 .23291016 .15576172 .28961183 .15063477 .34451805 .14038086 .39762879 .13012696 .45074974 .11482748 .50118 .09448242 .5489197 .07413737 .59665939 .04671224 .64415487 .012207031 .69140627H.06689453L.08203125 .6733246C.118489589 .62997946 .14558919 .59413149 .16333008 .56578066 .18107097 .5374298 .19873047 .5004476 .2163086 .45483399 .2446289 .38248698 .25878907 .30786134 .25878907 .23095703 .25878907 .15730794 .24593099 .08643087 .22021485 .018325806 .20751953-.015558879 .19148763-.049280805 .17211914-.082839969 .15275066-.1164093 .11767578-.16529338 .06689453-.22949219Z"/>
<clipPath id="clip_5">
<path transform="matrix(1,0,0,-1,-2.98015,540)" d="M171.72 494.449H201.573V524.4H171.72Z"/>
</clipPath>
<path id="font_3_18" d="M.55908206 .57107546C.55908206 .56193038 .5575358 .5496826 .55444338 .5343323 .5513509 .5189921 .54744467 .5066681 .5427246 .49736024 .5380046 .48805238 .53271487 .48339845 .52685549 .48339845 .5226237 .48339845 .5175781 .48608399 .51171877 .49145509 .5058594 .49682618 .49820964 .5026042 .48876954 .50878909 .47932945 .51497396 .46728517 .52075198 .45263673 .52612307 .43798829 .53149417 .41975913 .5341797 .39794923 .5341797 .3738607 .5341797 .35188804 .52937826 .33203126 .5197754 .31217448 .51017257 .2944336 .4974772 .2788086 .48168946 .2631836 .4659017 .24951172 .4477539 .23779297 .4272461 .22607422 .40673829 .21638997 .38541667 .20874024 .36328126 .2010905 .34114585 .19539388 .3190918 .19165039 .29711915 .1879069 .27514649 .18603516 .25472007 .18603516 .23583985 .18603516 .21305339 .18888347 .19303386 .19458008 .17578125 .20027669 .15852864 .2084961 .14420574 .21923828 .1328125 .22998047 .12141927 .24316406 .11287435 .25878907 .107177738 .27441407 .10148112 .2919922 .09863281 .31152345 .09863281 .3346354 .09863281 .3544108 .10107422 .3708496 .10595703 .38728843 .110839847 .4012858 .11621094 .4128418 .12207031 .4243978 .12792969 .43400065 .13330078 .4416504 .1381836 .44930015 .1430664 .45621745 .14550781 .46240235 .14550781 .46663413 .14550781 .46948243 .1439565 .47094728 .14085388 .4724121 .13775127 .47314454 .13342285 .47314454 .12786865 .47314454 .12559001 .472819 .122161868 .47216798 .11758423 .47151695 .11301676 .47070313 .10787455 .46972657 .10215759 .46875 .096440639 .4676107 .09023539 .4663086 .08354187 .4650065 .07684835 .46354167 .070643108 .46191407 .06492615 .46028648 .05921936 .4584147 .05399577 .45629884 .04925537 .45418296 .044525148 .45133464 .040364583 .4477539 .03677368 .4441732 .03318278 .43717448 .028528849 .4267578 .02281189 .41634117 .01709493 .40364585 .011784871 .38867188 .006881714 .3736979 .0019887288 .35677085-.0021718343 .33789063-.0055999758 .3190104-.009028117 .29882813-.0107421879 .27734376-.0107421879 .24186199-.0107421879 .20987956-.0060170495 .18139649 .0034332276 .1529134 .012893677 .12874349 .027236939 .10888672 .046463014 .089029949 .06569926 .07373047 .0898234 .06298828 .11883545 .052246095 .14785767 .046875 .18176778 .046875 .2205658 .046875 .2508799 .04996745 .28241984 .056152345 .31518556 .06233724 .34795127 .07169596 .37997947 .084228519 .41127015 .09676107 .442571 .11263021 .47223918 .13183594 .50027468 .15104167 .5283101 .17374675 .5528412 .19995117 .5738678 .2261556 .5948944 .25594078 .6116028 .28930665 .6239929 .32267253 .63638308 .35970054 .6425781 .40039063 .6425781 .4231771 .6425781 .44474284 .64020797 .4650879 .6354675 .48543296 .6307373 .5031738 .6244507 .51831057 .61660769 .53344729 .60877487 .5440267 .6016744 .5500488 .5953064 .556071 .58894857 .55908206 .5808716 .55908206 .57107546Z"/>
<path id="font_3_272" d="M.4189453 .42326356C.4189453 .41573588 .41805015 .40722657 .41625978 .3977356 .4144694 .3882548 .41210938 .3792623 .4091797 .37075807 .40625 .36225382 .4025879 .35513816 .39819337 .349411 .39379884 .34368388 .3889974 .3408203 .38378907 .3408203 .37890626 .3408203 .3741862 .34279887 .3696289 .34675599 .36507163 .3507131 .3594564 .35516358 .3527832 .36010743 .34611003 .36505128 .33772788 .36958314 .32763673 .373703 .31754557 .37782289 .30452476 .3798828 .28857423 .3798828 .27164714 .3798828 .2565104 .3761444 .24316406 .3686676 .2298177 .3611908 .21818035 .35152183 .20825196 .33966065 .19832357 .32779948 .19010417 .3143107 .18359375 .29919435 .17708333 .28408814 .17171224 .26881919 .16748047 .25338746 .1632487 .23795574 .16023763 .22316997 .15844727 .20903015 .1566569 .19489034 .15576172 .18262227 .15576172 .17222595 .15576172 .14589946 .16153972 .12591045 .1730957 .11225891 .18465169 .09861755 .20279949 .091796878 .22753906 .091796878 .24576824 .091796878 .26139323 .0941569 .27441407 .09887695 .2874349 .10359701 .29858399 .108805339 .30786134 .11450195 .31713868 .12019857 .32511393 .12532552 .3317871 .12988281 .3384603 .13444011 .3445638 .13671875 .35009767 .13671875 .35335288 .13671875 .3557129 .1352539 .35717774 .13232422 .35864259 .12939453 .359375 .12516277 .359375 .119628909 .359375 .114095058 .35872398 .107177738 .35742188 .09887695 .35611979 .09057617 .3544108 .08219401 .35229493 .07373047 .35017906 .06526693 .34773765 .057373048 .3449707 .050048829 .34220378 .04272461 .33862306 .03692627 .33422853 .03265381 .32983399 .028381348 .32291667 .023529053 .31347657 .018096924 .30403648 .012674968 .2931315 .007827759 .28076173 .0035552979 .26839195-.0007171631 .2549642-.0041656496 .24047852-.006790161 .22599285-.009424846 .2109375-.0107421879 .1953125-.0107421879 .13964844-.0107421879 .09798177 .0033365887 .0703125 .03149414 .04264323 .05965169 .028808594 .10123698 .028808594 .15625 .028808594 .17610677 .030680338 .19791667 .034423829 .22167969 .038167318 .2454427 .044270833 .2692871 .052734376 .2932129 .061197919 .31713868 .07218424 .34033204 .08569336 .36279298 .09920248 .3852539 .115722659 .4051107 .1352539 .42236329 .15478516 .43961589 .17740886 .45345054 .203125 .4638672 .22884114 .47428385 .25846354 .4794922 .2919922 .4794922 .30501304 .4794922 .31770835 .47851563 .33007813 .4765625 .3424479 .47460938 .35384117 .47192384 .3642578 .46850587 .37467448 .4650879 .38387046 .46110026 .3918457 .45654298 .39982096 .4519857 .40576173 .4478353 .40966798 .4440918 .41357423 .4403483 .41609703 .43700157 .41723634 .4340515 .41837565 .43111167 .4189453 .42751567 .4189453 .42326356Z"/>
<clipPath id="clip_6">
<path transform="matrix(1,0,0,-1,-2.98015,540)" d="M232.68 493.488H262.65299V523.32H232.68Z"/>
</clipPath>
<clipPath id="clip_7">
<path transform="matrix(1,0,0,-1,-2.98015,540)" d="M310.56 509.008H326.322V524.76H310.56Z"/>
</clipPath>
<path id="font_1_53" d="M.078125 0V.6826172H.24902344C.31803385 .6826172 .37280274 .6655019 .41333009 .63127139 .45385743 .59705099 .4741211 .550766 .4741211 .49241639 .4741211 .45265199 .46419273 .41826377 .44433595 .3892517 .42447917 .36023966 .3959961 .338562 .35888673 .32421876 .38069663 .30989585 .40201823 .2903646 .42285157 .265625 .4436849 .24088542 .47298179 .1977539 .5107422 .13623047 .5345052 .09749349 .55354818 .068359378 .5678711 .048828126L.6040039 0H.48779298L.4580078 .044952394C.45703126 .046579999 .45507813 .049346925 .45214845 .053253175L.43310548 .0801239 .40283204 .1299591 .3701172 .18321228C.3499349 .21122742 .33146159 .23352051 .31469728 .25009156 .29793296 .2666626 .28279624 .27860008 .2692871 .28590394 .25577799 .293218 .23307292 .296875 .20117188 .296875H.17578125V0H.078125M.20507813 .5996094H.17578125V.38378907H.21289063C.26236979 .38378907 .29630534 .388031 .31469728 .3965149 .3330892 .40499879 .3474121 .4178009 .35766603 .43492127 .36791993 .4520518 .37304688 .47154746 .37304688 .4934082 .37304688 .5149434 .36735026 .5344391 .35595704 .55189517 .3445638 .5693512 .3285319 .58166506 .30786134 .58883669 .28719078 .5960185 .2529297 .5996094 .20507813 .5996094Z"/>
<path id="font_1_84" d="M.27490235 .44921876H.4428711V-.22949219H.3540039V.0078125C.31526695-.0026041668 .2825521-.0078125 .25585938-.0078125 .1920573-.0078125 .13932292 .013671875 .09765625 .056640626 .055989583 .099609378 .03515625 .15413411 .03515625 .22021485 .03515625 .2902018 .056803388 .34586589 .100097659 .38720704 .14339192 .4285482 .20166016 .44921876 .27490235 .44921876M.3540039 .08496094V.36621095H.29785157C.2594401 .36621095 .23380535 .36450196 .22094727 .36108399 .20808919 .35767619 .19694011 .3529663 .1875 .34695436 .17805989 .34094239 .1694336 .33354698 .1616211 .32476808 .13720703 .29714967 .125 .2630259 .125 .22239685 .125 .17657979 .13875325 .13912456 .16625977 .11003113 .19376628 .080947879 .22932942 .06640625 .27294923 .06640625 .28304038 .06640625 .29134117 .06703695 .29785157 .06829834 .30436198 .06956991 .3186849 .07385763 .3408203 .0811615L.34765626 .08305359 .3540039 .08496094Z"/>
<path id="font_1_54" d="M.24414063 .2863922 .16992188 .33129884C.1233724 .35960899 .09025065 .38752748 .07055664 .41505433 .05086263 .44258119 .041015626 .47426353 .041015626 .5101013 .041015626 .5638631 .05965169 .6075185 .09692383 .6410675 .13419597 .67462667 .18261719 .69140627 .2421875 .69140627 .29915367 .69140627 .35139976 .6753743 .39892579 .64331057V.5319824C.34977214 .5796712 .296875 .6035156 .24023438 .6035156 .20833333 .6035156 .1821289 .59608969 .1616211 .5812378 .14111328 .5663859 .13085938 .5473735 .13085938 .52420046 .13085938 .5036418 .13834636 .48438517 .15332031 .46643067 .16829427 .44847618 .19254558 .42974855 .22607422 .4102478L.30078126 .36634828C.3841146 .3169403 .42578126 .25379435 .42578126 .1769104 .42578126 .122172039 .4074707 .077697757 .3708496 .04348755 .33422853 .009287517 .2866211-.0078125 .22802735-.0078125 .16064453-.0078125 .09928385 .013102214 .043945314 .05493164V.17895508C.09667969 .11173502 .15771485 .078125 .22705078 .078125 .25764976 .078125 .28312174 .08668518 .3034668 .10380554 .32381187 .1209259 .33398438 .14236959 .33398438 .1681366 .33398438 .20987447 .30403648 .24929302 .24414063 .2863922Z"/>
<path id="font_1_80" d="M.43115235 .32617188V0H.34179688V.25064088C.34179688 .30056764 .3351237 .33540345 .32177735 .35514833 .308431 .3748932 .28515626 .38476563 .25195313 .38476563 .23339844 .38476563 .21638997 .38046266 .20092774 .3718567 .1854655 .36325074 .16780599 .34802247 .14794922 .32617188V0H.05908203V.44921876H.14794922V.39013673C.19319661 .43603517 .23746746 .45898438 .28076173 .45898438 .33772788 .45898438 .38183595 .43164063 .41308595 .37695313 .46061198 .43164063 .5102539 .45898438 .5620117 .45898438 .60563156 .45898438 .6415202 .44303385 .66967776 .4111328 .69783529 .37923179 .71191409 .3305664 .71191409 .26513673V0H.6230469V.26679994C.6230469 .3043264 .61539718 .33304344 .60009768 .35295106 .58479818 .37285868 .5628255 .3828125 .5341797 .3828125 .49739585 .3828125 .46305339 .36393229 .43115235 .32617188Z"/>
<path id="font_1_9" d="M.4951172 0 .41601563 .09284973C.4091797 .086003627 .39746095 .07607015 .38085938 .06304932L.3798828 .062057496C.35677085 .042841596 .3282064 .026392619 .29418946 .012710571 .26017253-.00097147628 .22819011-.0078125 .19824219-.0078125 .15104167-.0078125 .1110026 .0075683596 .078125 .038330079 .045247396 .0690918 .028808594 .10660807 .028808594 .1508789 .028808594 .18277996 .036865236 .21158855 .052978517 .23730469 .0690918 .26302085 .0953776 .28922526 .13183594 .31591798L.13330078 .3173828C.15478516 .33333335 .17333985 .34554038 .18896485 .3540039 .13753255 .40901695 .111816409 .4617513 .111816409 .51220706 .111816409 .55875656 .12760417 .5965169 .15917969 .6254883 .1907552 .65445968 .23177083 .6689453 .28222657 .6689453 .33170573 .6689453 .37239585 .65477499 .40429688 .6264343 .4361979 .5980937 .45214845 .5619354 .45214845 .5179596 .45214845 .4583486 .4124349 .4003652 .3330078 .3440094L.32617188 .3386383 .421875 .2290802C.44986979 .2596588 .47428385 .2962545 .4951172 .3388672H.59277346C.56933596 .2781779 .53238937 .21846517 .4819336 .159729L.6201172 0H.4951172M.33398438 .14105225 .35595704 .16104126 .24511719 .28907777 .20214844 .25880433C.15136719 .22462464 .12597656 .18995159 .12597656 .15478516 .12597656 .13557942 .13427735 .119140628 .1508789 .10546875 .16748047 .091796878 .1875 .08496094 .2109375 .08496094 .22916667 .08496094 .24975586 .090164188 .27270509 .10057068 .2956543 .11097717 .31608073 .12447103 .33398438 .14105225M.2709961 .40455628 .30810548 .43095399C.3426107 .45539857 .35986329 .4837545 .35986329 .5160217 .35986329 .535909 .35262046 .55253097 .33813478 .56588748 .32364909 .57925418 .30533854 .5859375 .28320313 .5859375 .26171876 .5859375 .24397786 .5797526 .22998047 .5673828 .21598308 .5550232 .20898438 .5395711 .20898438 .5210266 .20898438 .5031331 .21451824 .48369346 .22558594 .46270753 .23665364 .4417216 .25179038 .42233787 .2709961 .40455628Z"/>
<path id="font_1_48" d="M.61816409 .6826172H.7089844V0H.61083987V.53125L.4008789 .26757813H.3828125L.17089844 .53125V0H.07324219V.6826172H.16503906L.39208985 .4024048 .61816409 .6826172Z"/>
<clipPath id="clip_8">
<path transform="matrix(1,0,0,-1,-2.98015,540)" d="M303.6 500.689H333.453V530.64H303.6Z"/>
</clipPath>
<path id="font_1_89" d="M.33789063 .44921876H.43408204L.23583985-.0078125H.20605469L.0029296876 .44921876H.100097659L.2211914 .17285156 .33789063 .44921876Z"/>
<clipPath id="clip_9">
<path transform="matrix(1,0,0,-1,-2.98015,540)" d="M366.6 497.688H396.453V527.519H366.6Z"/>
</clipPath>
<clipPath id="clip_10">
<path transform="matrix(1,0,0,-1,-2.98015,540)" d="M427.56 498.61H450.577V521.64H427.56Z"/>
</clipPath>
<path id="font_11_44" d="M.25195313 .6826172V0H.08203125V.6826172H.25195313Z"/>
<path id="font_11_41" d="M.54589846 .6826172V.5576172H.24609375V.40527345H.54589846V.28027345H.24609375V0H.076171878V.6826172H.54589846Z"/>
<path id="font_1_40" d="M.07519531 .6826172H.46191407V.5957031H.17285156V.38671876H.45214845V.29882813H.17285156V.08691406H.4711914V0H.07519531V.6826172Z"/>
<path id="font_1_91" d="M.37304688 .44921876H.4868164L.3017578 .2278595 .5 0H.38623048L.24511719 .16114807 .111816409 0H0L.18896485 .22787476 0 .44921876H.111816409L.24511719 .29499818 .37304688 .44921876Z"/>
<path id="font_1_83" d="M.057128908-.22949219V.44921876H.21289063C.29264323 .44921876 .35473634 .42936198 .39916993 .38964845 .44360353 .3499349 .4658203 .2944336 .4658203 .22314453 .4658203 .15576172 .4449056 .10042318 .40307618 .057128908 .36124674 .013834636 .30794273-.0078125 .24316406-.0078125 .21451824-.0078125 .18277996-.0014648438 .14794922 .011230469V-.22949219H.057128908M.2109375 .36621095H.14794922V.08984375C.17529297 .076171878 .2039388 .06933594 .23388672 .06933594 .27555339 .06933594 .3096517 .08379618 .33618165 .112716678 .36271159 .14164734 .37597657 .17885845 .37597657 .22434998 .37597657 .25360618 .3697103 .27944438 .35717774 .30186463 .34464518 .32428489 .32755534 .3406118 .3059082 .35084535 .28426109 .36108909 .25260417 .36621095 .2109375 .36621095Z"/>
<clipPath id="clip_12">
<path transform="matrix(1,0,0,-1,-2.98015,540)" d="M432.48 401.32H460.78V429.6H432.48Z"/>
</clipPath>
<path id="font_1_92" d="M.33789063 .44921876H.43798829L.12011719-.22949219H.020996094L.17382813 .09701538 0 .44921876H.10107422L.22216797 .19618225 .33789063 .44921876Z"/>
<path id="font_1_75" d="M.061035158 .6826172H.14990235V.390625C.18701172 .4361979 .23307292 .45898438 .28808595 .45898438 .31803385 .45898438 .3448893 .45148216 .36865235 .43647767 .39241538 .42147319 .41007487 .40075685 .42163087 .3743286 .43318687 .34791056 .43896485 .3086039 .43896485 .2564087V0H.35009767V.27818299C.35009767 .3111013 .34204103 .33758036 .32592774 .35762025 .30981446 .3776703 .28857423 .3876953 .26220704 .3876953 .24267578 .3876953 .22428386 .38264976 .20703125 .3725586 .18977864 .36246745 .17073567 .34570313 .14990235 .32226563V0H.061035158V.6826172Z"/>
<path id="font_1_78" d="M.35498048 .44921876H.4609375L.26904298 .22921753 .5 0H.38085938L.15576172 .2290039 .35498048 .44921876M.06298828 .6826172H.15185547V0H.06298828V.6826172Z"/>
<clipPath id="clip_13">
<path transform="matrix(1,0,0,-1,-2.98015,540)" d="M349.08 409.24H377.38099V437.52H349.08Z"/>
</clipPath>
<path id="font_1_36" d="M.29296876 .68652346H.3618164L.6669922 0H.56689456L.47607423 .20214844H.18603516L.100097659 0H0L.29296876 .68652346M.43603517 .2890625 .32617188 .5366211 .2241211 .2890625H.43603517Z"/>
<clipPath id="clip_14">
<path transform="matrix(1,0,0,-1,-2.98015,540)" d="M295.44 410.3H320.397V435.12H295.44Z"/>
</clipPath>
<path id="font_1_50" d="M.41015626 .6923828C.515625 .6923828 .60343429 .6589915 .673584 .59220889 .7437337 .5254364 .7788086 .4417216 .7788086 .34106446 .7788086 .2404073 .7434082 .15709432 .6726074 .09112549 .60180667 .02516683 .51253256-.0078125 .40478517-.0078125 .30192057-.0078125 .21622722 .02516683 .14770508 .09112549 .079182948 .15709432 .044921876 .23975627 .044921876 .33911134 .044921876 .44107057 .079427089 .5254364 .1484375 .59220889 .21744792 .6589915 .3046875 .6923828 .41015626 .6923828M.4140625 .5996094C.3359375 .5996094 .27172853 .57516989 .22143555 .5262909 .17114258 .4774221 .1459961 .4150289 .1459961 .33911134 .1459961 .2654724 .17122396 .20421346 .22167969 .15533448 .2721354 .10646566 .33528648 .08203125 .4111328 .08203125 .4873047 .08203125 .5508626 .10695394 .60180667 .15679932 .6527507 .20665486 .67822268 .26872764 .67822268 .34301759 .67822268 .4153544 .6527507 .4762014 .60180667 .5255585 .5508626 .5749257 .48828126 .5996094 .4140625 .5996094Z"/>
<path id="font_1_93" d="M.020996094 .44921876H.40478517L.16699219 .08300781H.40478517V0H.011230469L.24707031 .36621095H.020996094V.44921876Z"/>
<clipPath id="clip_15">
<path transform="matrix(1,0,0,-1,-2.98015,540)" d="M182.76 393.223H222.284V432.60099H182.76Z"/>
</clipPath>
<path id="font_1_58" d="M.94384768 .6826172H1.0410156L.7651367-.0029296876H.7441406L.5209961 .55215457 .29589845-.0029296876H.27490235L0 .6826172H.09814453L.2861328 .21206665 .47509767 .6826172H.5678711L.7578125 .21206665 .94384768 .6826172Z"/>
<path id="font_1_43" d="M.55615237 .6826172H.6538086V0H.55615237V.296875H.17285156V0H.07519531V.6826172H.17285156V.3876953H.55615237V.6826172Z"/>
<path id="font_1_90" d="M.62402346 .44921876H.7192383L.5209961-.0078125H.49316407L.35986329 .30517579 .2290039-.0078125H.20019531L0 .44921876H.095214847L.21289063 .17675781 .32714845 .44921876H.3930664L.50683596 .17675781 .62402346 .44921876Z"/>
<clipPath id="clip_16">
<path transform="matrix(1,0,0,-1,-2.98015,540)" d="M37.2 414.271H64.068V441H37.2Z"/>
</clipPath>
<clipPath id="clip_17">
<path transform="matrix(1,0,0,-1,-2.98015,540)" d="M108.84 416.666H134.633V442.43998H108.84Z"/>
</clipPath>
<path id="font_1_57" d="M.50683596 .6826172H.6040039L.31591798-.0029296876H.2939453L0 .6826172H.09814453L.30322267 .203125 .50683596 .6826172Z"/>
</defs>
<g clip-path="url(#clip_0)">
<g id="layer_1" data-name="Background">
<path transform="matrix(1,0,0,-1,-2.98015,540)" d="M0 0H960V540H0Z" fill="#ffffff"/>
</g>
<use data-text="C" xlink:href="#font_1_38" transform="matrix(12,0,0,-12,10.8623499,56.3143)"/>
<use data-text="o" xlink:href="#font_1_82" transform="matrix(12,0,0,-12,19.382349,56.3143)"/>
<use data-text="n" xlink:href="#font_1_81" transform="matrix(12,0,0,-12,25.98235,56.3143)"/>
<use data-text="t" xlink:href="#font_1_87" transform="matrix(12,0,0,-12,31.982348,56.3143)"/>
<use data-text="a" xlink:href="#font_1_68" transform="matrix(12,0,0,-12,35.94235,56.3143)"/>
<use data-text="c" xlink:href="#font_1_70" transform="matrix(12,0,0,-12,41.10235,56.3143)"/>
<use data-text="t" xlink:href="#font_1_87" transform="matrix(12,0,0,-12,46.38235,56.3143)"/>
<use data-text="s" xlink:href="#font_1_86" transform="matrix(12,0,0,-12,50.34235,56.3143)"/>
<use data-text="C" xlink:href="#font_1_38" transform="matrix(12,0,0,-12,19.382349,66.39429)"/>
<use data-text="o" xlink:href="#font_1_82" transform="matrix(12,0,0,-12,27.90235,66.39429)"/>
<use data-text="d" xlink:href="#font_1_71" transform="matrix(12,0,0,-12,34.502355,66.39429)"/>
<use data-text="e" xlink:href="#font_1_72" transform="matrix(12,0,0,-12,40.622354,66.39429)"/>
<g clip-path="url(#clip_2)">
<path transform="matrix(.0332346,0,0,.0330944,37.713514,27.199219)" d="M0 0C0 88.366 71.634 160 160 160 248.366 160 320 88.366 320 0 320-88.366 248.366-160 160-160 71.634-160 0-88.366 0 0" fill="#ffd740"/>
<path transform="matrix(.0332346,0,0,.0330944,43.03105,32.759096)" d="M0 0C-92.64 0-168-75.36-168-168-168-260.64-92.64-336 0-336 92.64-336 168-260.64 168-168 168-75.36 92.64 0 0 0M0-320C-83.808-320-152-251.808-152-168-152-84.192-83.808-16 0-16 83.808-16 152-84.192 152-168 152-251.808 83.808-320 0-320" fill="#263238"/>
<path transform="matrix(.0332346,0,0,.0330944,43.03105,31.435303)" d="M0 0C-70.576 0-128-57.424-128-128-128-198.576-70.576-256 0-256 70.576-256 128-198.576 128-128 128-57.424 70.576 0 0 0M0-240C-61.76-240-112-189.76-112-128-112-66.24-61.76-16 0-16 61.76-16 112-66.24 112-128 112-189.76 61.76-240 0-240" fill="#263238"/>
<path transform="matrix(.0332346,0,0,.0330944,43.29693,29.05252)" d="M0 0H-40C-44.418 0-48-3.582-48-8-48-12.418-44.418-16-40-16H0C8.816-16 16-23.184 16-32 16-40.816 8.816-48 0-48H-16C-33.648-48-48-62.352-48-80-48-97.648-33.648-112-16-112H16C20.418-112 24-108.418 24-104 24-99.582 20.418-96 16-96H-16C-24.816-96-32-88.816-32-80-32-71.184-24.816-64-16-64H0C17.648-64 32-49.648 32-32 32-14.352 17.648 0 0 0" fill="#263238"/>
<path transform="matrix(.0332346,0,0,.0330944,43.03105,25.875428)" d="M0 0C-4.418 0-8-3.582-8-8V-32C-8-36.418-4.418-40 0-40 4.418-40 8-36.418 8-32V-8C8-3.582 4.418 0 0 0M0 120C-4.418 120-8 116.418-8 112V88C-8 83.582-4.418 80 0 80 4.418 80 8 83.582 8 88V112C8 116.418 4.418 120 0 120M-552 592H-760C-786.464 592-808 570.464-808 544V336C-808 309.536-786.464 288-760 288H-552C-525.536 288-504 309.536-504 336V544C-504 570.464-525.536 592-552 592M-760 304C-777.648 304-792 318.352-792 336V544C-792 561.648-777.648 576-760 576H-552C-534.352 576-520 561.648-520 544V336C-520 318.352-534.352 304-552 304Z" fill="#263238"/>
<path transform="matrix(.0332346,0,0,.0330944,18.570384,38.84845)" d="M0 0C-4.418 0-8-3.582-8-8V-56C-8-60.418-4.418-64 0-64 4.418-64 8-60.418 8-56V-8C8-3.582 4.418 0 0 0M160 0C155.582 0 152-3.582 152-8V-56C152-60.418 155.582-64 160-64 164.418-64 168-60.418 168-56V-8C168-3.582 164.418 0 160 0M80 80C75.582 80 72 76.418 72 72V24C72 19.582 75.582 16 80 16 84.418 16 88 19.582 88 24V72C88 76.418 84.418 80 80 80M160 80C155.582 80 152 76.418 152 72V24C152 19.582 155.582 16 160 16 164.418 16 168 19.582 168 24V72C168 76.418 164.418 80 160 80M80 0C66.768 0 56-10.768 56-24V-40C56-53.232 66.768-64 80-64 93.232-64 104-53.232 104-40V-24C104-10.768 93.232 0 80 0M80-48C75.582-48 72-44.418 72-40V-24C72-19.582 75.582-16 80-16 84.418-16 88-19.582 88-24V-40C88-44.418 84.418-48 80-48M0 80C-13.232 80-24 69.232-24 56V40C-24 26.768-13.232 16 0 16 13.232 16 24 26.768 24 40V56C24 69.232 13.232 80 0 80M0 32C-4.418 32-8 35.582-8 40V56C-8 60.418-4.418 64 0 64 4.418 64 8 60.418 8 56V40C8 35.582 4.418 32 0 32M0 160C-13.232 160-24 149.232-24 136V120C-24 106.768-13.232 96 0 96 13.232 96 24 106.768 24 120V136C24 149.232 13.232 160 0 160M0 112C-4.418 112-8 115.582-8 120V136C-8 140.418-4.418 144 0 144 4.418 144 8 140.418 8 136V120C8 115.582 4.418 112 0 112M80 160C66.768 160 56 149.232 56 136V120C56 106.768 66.768 96 80 96 93.232 96 104 106.768 104 120V136C104 149.232 93.232 160 80 160M80 112C75.582 112 72 115.582 72 120V136C72 140.418 75.582 144 80 144 84.418 144 88 140.418 88 136V120C88 115.582 84.418 112 80 112M160 160C146.768 160 136 149.232 136 136V120C136 106.768 146.768 96 160 96 173.232 96 184 106.768 184 120V136C184 149.232 173.232 160 160 160M160 112C155.582 112 152 115.582 152 120V136C152 140.418 155.582 144 160 144 164.418 144 168 140.418 168 136V120C168 115.582 164.418 112 160 112M0-216C-4.418-216-8-219.582-8-224V-240C-8-244.418-4.418-248 0-248 4.418-248 8-244.418 8-240V-224C8-219.582 4.418-216 0-216M0-264C-4.418-264-8-267.582-8-272V-496C-8-500.418-4.418-504 0-504 4.418-504 8-500.418 8-496V-272C8-267.582 4.418-264 0-264M816-104C811.582-104 808-107.582 808-112V-128C808-132.418 811.582-136 816-136 820.418-136 824-132.418 824-128V-112C824-107.582 820.418-104 816-104M816 152C811.582 152 808 148.418 808 144V-80C808-84.418 811.582-88 816-88 820.418-88 824-84.418 824-80V144C824 148.418 820.418 152 816 152M232-608H80C75.582-607.992 71.994-611.567 71.986-615.986 71.982-618.116 72.828-620.16 74.336-621.664L226.336-773.664C226.344-778.082 229.932-781.657 234.35-781.649 238.769-781.642 242.344-778.054 242.336-773.636 242.332-771.522 241.492-769.496 240-768V-616C240-611.582 236.418-608 232-608M99.312-624H224V-748.688Z" fill="#263238"/>
<path transform="matrix(.0332346,0,0,.0330944,27.07844,23.492676)" d="M0 0H-64C-72.837 0-80-7.163-80-16V-80C-80-88.837-72.837-96-64-96H0C8.837-96 16-88.837 16-80V-16C16-7.163 8.837 0 0 0" fill="#ff5252"/>
<path transform="matrix(.0332346,0,0,.0330944,27.07844,23.757386)" d="M0 0H-64C-77.232 0-88-10.768-88-24V-88C-88-101.232-77.232-112-64-112H0C13.232-112 24-101.232 24-88V-24C24-10.768 13.232 0 0 0M-64-96C-68.418-96-72-92.418-72-88V-24C-72-19.582-68.418-16-64-16H0C4.418-16 8-19.582 8-24V-88C8-92.418 4.418-96 0-96ZM346.672-48H106.672C102.254-48 98.672-51.582 98.672-56 98.672-60.418 102.254-64 106.672-64H346.672C351.09-64 354.672-60.418 354.672-56 354.672-51.582 351.09-48 346.672-48" fill="#263238"/>
<path transform="matrix(.0332346,0,0,.0330944,27.07844,28.78775)" d="M0 0H-64C-72.837 0-80-7.163-80-16V-80C-80-88.837-72.837-96-64-96H0C8.837-96 16-88.837 16-80V-16C16-7.163 8.837 0 0 0" fill="#ff5252"/>
<path transform="matrix(.0332346,0,0,.0330944,27.07844,29.05252)" d="M0 0H-64C-77.232 0-88-10.768-88-24V-88C-88-101.232-77.232-112-64-112H0C13.232-112 24-101.232 24-88V-24C24-10.768 13.232 0 0 0M-64-96C-68.418-96-72-92.418-72-88V-24C-72-19.582-68.418-16-64-16H0C4.418-16 8-19.582 8-24V-88C8-92.418 4.418-96 0-96ZM288-48H106.672C102.254-48 98.672-51.582 98.672-56 98.672-60.418 102.254-64 106.672-64H288C292.418-64 296-60.418 296-56 296-51.582 292.418-48 288-48" fill="#263238"/>
<path transform="matrix(.0332346,0,0,.0330944,27.07844,34.082857)" d="M0 0H-64C-72.837 0-80-7.163-80-16V-80C-80-88.837-72.837-96-64-96H0C8.837-96 16-88.837 16-80V-16C16-7.163 8.837 0 0 0" fill="#ff5252"/>
<path transform="matrix(.0332346,0,0,.0330944,27.07844,34.347627)" d="M0 0H-64C-77.232 0-88-10.768-88-24V-88C-88-101.232-77.232-112-64-112H0C13.232-112 24-101.232 24-88V-24C24-10.768 13.232 0 0 0M-64-96C-68.418-96-72-92.418-72-88V-24C-72-19.582-68.418-16-64-16H0C4.418-16 8-19.582 8-24V-88C8-92.418 4.418-96 0-96ZM346.672-48H106.672C102.254-48 98.672-51.582 98.672-56 98.672-60.418 102.254-64 106.672-64H346.672C351.09-64 354.672-60.418 354.672-56 354.672-51.582 351.09-48 346.672-48M440 240H0C-4.418 240-8 236.418-8 232-8 227.582-4.418 224 0 224H440C457.648 224 472 209.648 472 192V-24C472-28.418 475.582-32 480-32 484.418-32 488-28.418 488-24V192C488 218.464 466.464 240 440 240" fill="#263238"/>
<path transform="matrix(.0332346,0,0,.0330944,21.22915,34.877138)" d="M0 0C-4.418 0-8-3.582-8-8V-496C-8-498.128-7.152-500.16-5.664-501.664L146.336-653.664C147.843-655.157 149.878-655.997 152-656H616C642.464-656 664-634.464 664-608V-424C664-419.582 660.418-416 656-416 651.582-416 648-419.582 648-424V-608C648-625.648 633.648-640 616-640H155.312L8-492.688V-8C8-3.582 4.418 0 0 0M32-616H-32C-36.418-616-40-619.582-40-624-40-628.418-36.418-632-32-632H32C36.418-632 40-628.418 40-624 40-619.582 36.418-616 32-616" fill="#263238"/>
<path transform="matrix(.0332346,0,0,.0330944,21.22915,15.549988)" d="M0 0C-4.418 0-8-3.582-8-8V-72C-8-76.418-4.418-80 0-80 4.418-80 8-76.418 8-72V-8C8-3.582 4.418 0 0 0" fill="#263238"/>
<path transform="matrix(.0332346,0,0,.0330944,18.570384,17.9328)" d="M0 0H-64C-68.418 0-72-3.582-72-8-72-12.418-68.418-16-64-16H0C4.418-16 8-12.418 8-8 8-3.582 4.418 0 0 0" fill="#263238"/>
<path transform="matrix(.0332346,0,0,.0330944,17.506875,18.991822)" d="M0 0C-4.418 0-8-3.582-8-8V-72C-8-76.418-4.418-80 0-80 4.418-80 8-76.418 8-72V-8C8-3.582 4.418 0 0 0" fill="#263238"/>
<path transform="matrix(.0332346,0,0,.0330944,41.435789,17.9328)" d="M0 0C-4.418 0-8-3.582-8-8V-72C-8-76.418-11.582-80-16-80H-80C-84.418-80-88-83.582-88-88-88-92.418-84.418-96-80-96H-16C-2.768-96 8-85.232 8-72V-8C8-3.582 4.418 0 0 0" fill="#263238"/>
</g>
<use data-text="T" xlink:href="#font_1_55" transform="matrix(12,0,0,-12,110.697658,55.9617)"/>
<use data-text="a" xlink:href="#font_1_68" transform="matrix(12,0,0,-12,116.45766,55.9617)"/>
<use data-text="r" xlink:href="#font_1_85" transform="matrix(12,0,0,-12,121.61766,55.9617)"/>
<use data-text="g" xlink:href="#font_1_74" transform="matrix(12,0,0,-12,126.41765,55.9617)"/>
<use data-text="e" xlink:href="#font_1_72" transform="matrix(12,0,0,-12,131.57765,55.9617)"/>
<use data-text="t" xlink:href="#font_1_87" transform="matrix(12,0,0,-12,137.33765,55.9617)"/>
<use data-text="F" xlink:href="#font_1_41" transform="matrix(12,0,0,-12,104.93765,65.92169)"/>
<use data-text="u" xlink:href="#font_1_88" transform="matrix(12,0,0,-12,110.57765,65.92169)"/>
<use data-text="n" xlink:href="#font_1_81" transform="matrix(12,0,0,-12,116.57765,65.92169)"/>
<use data-text="c" xlink:href="#font_1_70" transform="matrix(12,0,0,-12,122.57765,65.92169)"/>
<use data-text="t" xlink:href="#font_1_87" transform="matrix(12,0,0,-12,127.85765,65.92169)"/>
<use data-text="i" xlink:href="#font_1_76" transform="matrix(12,0,0,-12,131.81766,65.92169)"/>
<use data-text="o" xlink:href="#font_1_82" transform="matrix(12,0,0,-12,134.45766,65.92169)"/>
<use data-text="n" xlink:href="#font_1_81" transform="matrix(12,0,0,-12,141.05765,65.92169)"/>
<use data-text="f" xlink:href="#font_3_296" transform="matrix(15.96,0,0,-15.96,123.92165,37.662904)" fill="#ff0000"/>
<g clip-path="url(#clip_4)">
<path transform="matrix(.0292697,0,0,.0291324,137.38584,25.584168)" d="M0 0-198.02-198.02C-206.012-206.012-218.977-206.012-226.969-198.02-234.961-190.028-234.961-177.073-226.969-169.081L-63.885-5.997H-279.68V-271.197C-279.68-282.504-288.839-291.663-300.146-291.663H-708.241C-719.548-291.663-728.707-282.504-728.707-271.197V667.431C-728.707 678.728-719.548 687.897-708.241 687.897H-14.48C-3.172 687.897 5.986 678.728 5.986 667.431V14.469C5.986 9.046 3.837 3.837 0 0M-34.946 646.965H-687.775V-250.731H-320.612V14.469C-320.612 25.777-311.443 34.935-300.146 34.935H-34.946Z"/>
</g>
<use data-text="T" xlink:href="#font_1_55" transform="matrix(12,0,0,-12,66.14475,17.236329)"/>
<use data-text="a" xlink:href="#font_1_68" transform="matrix(12,0,0,-12,71.904758,17.236329)"/>
<use data-text="r" xlink:href="#font_1_85" transform="matrix(12,0,0,-12,77.06476,17.236329)"/>
<use data-text="g" xlink:href="#font_1_74" transform="matrix(12,0,0,-12,81.86476,17.236329)"/>
<use data-text="e" xlink:href="#font_1_72" transform="matrix(12,0,0,-12,87.024768,17.236329)"/>
<use data-text="t" xlink:href="#font_1_87" transform="matrix(12,0,0,-12,92.78476,17.236329)"/>
<use data-text=" " xlink:href="#font_1_3" transform="matrix(12,0,0,-12,96.74476,17.236329)"/>
<use data-text="F" xlink:href="#font_1_41" transform="matrix(12,0,0,-12,60.384756,26.596314)"/>
<use data-text="u" xlink:href="#font_1_88" transform="matrix(12,0,0,-12,66.02476,26.596314)"/>
<use data-text="n" xlink:href="#font_1_81" transform="matrix(12,0,0,-12,72.02476,26.596314)"/>
<use data-text="c" xlink:href="#font_1_70" transform="matrix(12,0,0,-12,78.02476,26.596314)"/>
<use data-text="t" xlink:href="#font_1_87" transform="matrix(12,0,0,-12,83.30476,26.596314)"/>
<use data-text="i" xlink:href="#font_1_76" transform="matrix(12,0,0,-12,87.26476,26.596314)"/>
<use data-text="o" xlink:href="#font_1_82" transform="matrix(12,0,0,-12,89.90476,26.596314)"/>
<use data-text="n" xlink:href="#font_1_81" transform="matrix(12,0,0,-12,96.50476,26.596314)"/>
<use data-text=" " xlink:href="#font_1_3" transform="matrix(12,0,0,-12,102.50476,26.596314)"/>
<use data-text="I" xlink:href="#font_1_44" transform="matrix(12,0,0,-12,50.064756,35.9563)"/>
<use data-text="d" xlink:href="#font_1_71" transform="matrix(12,0,0,-12,53.064756,35.9563)"/>
<use data-text="e" xlink:href="#font_1_72" transform="matrix(12,0,0,-12,59.184755,35.9563)"/>
<use data-text="n" xlink:href="#font_1_81" transform="matrix(12,0,0,-12,64.944759,35.9563)"/>
<use data-text="t" xlink:href="#font_1_87" transform="matrix(12,0,0,-12,70.944759,35.9563)"/>
<use data-text="i" xlink:href="#font_1_76" transform="matrix(12,0,0,-12,74.904758,35.9563)"/>
<use data-text="f" xlink:href="#font_1_73" transform="matrix(12,0,0,-12,77.544757,35.9563)"/>
<use data-text="i" xlink:href="#font_1_76" transform="matrix(12,0,0,-12,80.544757,35.9563)"/>
<use data-text="c" xlink:href="#font_1_70" transform="matrix(12,0,0,-12,83.18475,35.9563)"/>
<use data-text="a" xlink:href="#font_1_68" transform="matrix(12,0,0,-12,88.46475,35.9563)"/>
<use data-text="t" xlink:href="#font_1_87" transform="matrix(12,0,0,-12,93.624759,35.9563)"/>
<use data-text="i" xlink:href="#font_1_76" transform="matrix(12,0,0,-12,97.584758,35.9563)"/>
<use data-text="o" xlink:href="#font_1_82" transform="matrix(12,0,0,-12,100.224758,35.9563)"/>
<use data-text="n" xlink:href="#font_1_81" transform="matrix(12,0,0,-12,106.82475,35.9563)"/>
<path transform="matrix(1,0,0,-1,50.95985,38.359315)" stroke-width="1.5" stroke-linecap="butt" stroke-miterlimit="8" stroke-linejoin="miter" fill="none" stroke="#000000" d="M0 0 57.007 .79"/>
<path transform="matrix(1,0,0,-1,107.008358,40.5831)" d="M0 0 5.958 3.083-.083 5.999Z" fill-rule="evenodd"/>
<path transform="matrix(1,0,0,-1,142.87985,37.98001)" stroke-width="1.5" stroke-linecap="butt" stroke-miterlimit="8" stroke-linejoin="miter" fill="none" stroke="#000000" d="M0 0H17.564"/>
<path transform="matrix(1,0,0,-1,159.44446,34.979799)" d="M0 0 6-3 0-6Z" fill-rule="evenodd"/>
<use data-text="D" xlink:href="#font_1_39" transform="matrix(12,0,0,-12,167.13715,55.706789)"/>
<use data-text="i" xlink:href="#font_1_76" transform="matrix(12,0,0,-12,176.13716,55.706789)"/>
<use data-text="r" xlink:href="#font_1_85" transform="matrix(12,0,0,-12,178.77716,55.706789)"/>
<use data-text="e" xlink:href="#font_1_72" transform="matrix(12,0,0,-12,183.33716,55.706789)"/>
<use data-text="c" xlink:href="#font_1_70" transform="matrix(12,0,0,-12,189.09716,55.706789)"/>
<use data-text="t" xlink:href="#font_1_87" transform="matrix(12,0,0,-12,194.37715,55.706789)"/>
<use data-text="(" xlink:href="#font_1_11" transform="matrix(12,0,0,-12,164.49715,65.66678)"/>
<use data-text="P" xlink:href="#font_1_51" transform="matrix(12,0,0,-12,168.33716,65.66678)"/>
<use data-text="u" xlink:href="#font_1_88" transform="matrix(12,0,0,-12,174.45716,65.66678)"/>
<use data-text="b" xlink:href="#font_1_69" transform="matrix(12,0,0,-12,180.45716,65.66678)"/>
<use data-text="l" xlink:href="#font_1_79" transform="matrix(12,0,0,-12,186.45716,65.66678)"/>
<use data-text="i" xlink:href="#font_1_76" transform="matrix(12,0,0,-12,189.09716,65.66678)"/>
<use data-text="c" xlink:href="#font_1_70" transform="matrix(12,0,0,-12,191.73715,65.66678)"/>
<use data-text=")" xlink:href="#font_1_12" transform="matrix(12,0,0,-12,197.01715,65.66678)"/>
<use data-text=" " xlink:href="#font_1_3" transform="matrix(12,0,0,-12,200.85715,65.66678)"/>
<use data-text="C" xlink:href="#font_1_38" transform="matrix(12,0,0,-12,167.97714,75.62677)"/>
<use data-text="a" xlink:href="#font_1_68" transform="matrix(12,0,0,-12,176.49713,75.62677)"/>
<use data-text="l" xlink:href="#font_1_79" transform="matrix(12,0,0,-12,181.65714,75.62677)"/>
<use data-text="l" xlink:href="#font_1_79" transform="matrix(12,0,0,-12,184.29714,75.62677)"/>
<use data-text="e" xlink:href="#font_1_72" transform="matrix(12,0,0,-12,186.93714,75.62677)"/>
<use data-text="r" xlink:href="#font_1_85" transform="matrix(12,0,0,-12,192.69713,75.62677)"/>
<g clip-path="url(#clip_5)">
<path transform="matrix(.0291531,0,0,.029249,194.64221,24.7808)" d="M0 0-198.02-198.02C-206.012-206.012-218.977-206.012-226.969-198.02-234.961-190.028-234.961-177.073-226.969-169.081L-63.885-5.997H-279.68V-271.197C-279.68-282.504-288.839-291.663-300.146-291.663H-708.241C-719.548-291.663-728.707-282.504-728.707-271.197V667.431C-728.707 678.728-719.548 687.897-708.241 687.897H-14.48C-3.172 687.897 5.986 678.728 5.986 667.431V14.469C5.986 9.046 3.837 3.837 0 0M-34.946 646.965H-687.775V-250.731H-320.612V14.469C-320.612 25.777-311.443 34.935-300.146 34.935H-34.946Z"/>
</g>
<use data-text="C" xlink:href="#font_3_18" transform="matrix(15.96,0,0,-15.96,178.36905,38.848787)"/>
<use data-text="I" xlink:href="#font_1_44" transform="matrix(12,0,0,-12,231.39356,57.456697)"/>
<use data-text="n" xlink:href="#font_1_81" transform="matrix(12,0,0,-12,234.39356,57.456697)"/>
<use data-text="l" xlink:href="#font_1_79" transform="matrix(12,0,0,-12,240.39356,57.456697)"/>
<use data-text="i" xlink:href="#font_1_76" transform="matrix(12,0,0,-12,243.03356,57.456697)"/>
<use data-text="n" xlink:href="#font_1_81" transform="matrix(12,0,0,-12,245.67356,57.456697)"/>
<use data-text="e" xlink:href="#font_1_72" transform="matrix(12,0,0,-12,251.67356,57.456697)"/>
<use data-text="F" xlink:href="#font_1_41" transform="matrix(12,0,0,-12,223.35356,67.41669)"/>
<use data-text="u" xlink:href="#font_1_88" transform="matrix(12,0,0,-12,228.99356,67.41669)"/>
<use data-text="n" xlink:href="#font_1_81" transform="matrix(12,0,0,-12,234.99356,67.41669)"/>
<use data-text="c" xlink:href="#font_1_70" transform="matrix(12,0,0,-12,240.99356,67.41669)"/>
<use data-text="t" xlink:href="#font_1_87" transform="matrix(12,0,0,-12,246.27356,67.41669)"/>
<use data-text="i" xlink:href="#font_1_76" transform="matrix(12,0,0,-12,250.23357,67.41669)"/>
<use data-text="o" xlink:href="#font_1_82" transform="matrix(12,0,0,-12,252.87357,67.41669)"/>
<use data-text="n" xlink:href="#font_1_81" transform="matrix(12,0,0,-12,259.47358,67.41669)"/>
<use data-text="c" xlink:href="#font_3_272" transform="matrix(15.96,0,0,-15.96,238.58745,37.657899)"/>
<use data-text="c" xlink:href="#font_3_272" transform="matrix(15.96,0,0,-15.96,245.06722,37.657899)"/>
<g clip-path="url(#clip_6)">
<path transform="matrix(.0292697,0,0,.0291324,255.70583,25.824158)" d="M0 0-198.02-198.02C-206.012-206.012-218.977-206.012-226.969-198.02-234.961-190.028-234.961-177.073-226.969-169.081L-63.885-5.997H-279.68V-271.197C-279.68-282.504-288.839-291.663-300.146-291.663H-708.241C-719.548-291.663-728.707-282.504-728.707-271.197V667.431C-728.707 678.728-719.548 687.897-708.241 687.897H-14.48C-3.172 687.897 5.986 678.728 5.986 667.431V14.469C5.986 9.046 3.837 3.837 0 0M-34.946 646.965H-687.775V-250.731H-320.612V14.469C-320.612 25.777-311.443 34.935-300.146 34.935H-34.946Z"/>
</g>
<path transform="matrix(1,0,0,-1,200.71985,37.98001)" stroke-width="1.5" stroke-linecap="butt" stroke-miterlimit="8" stroke-linejoin="miter" fill="none" stroke="#000000" d="M0 0H20.781"/>
<path transform="matrix(1,0,0,-1,220.50106,34.979799)" d="M0 0 6-3 0-6Z" fill-rule="evenodd"/>
<use data-text="I" xlink:href="#font_1_44" transform="matrix(12,0,0,-12,200.37786,33.956605)"/>
<use data-text="n" xlink:href="#font_1_81" transform="matrix(12,0,0,-12,203.37786,33.956605)"/>
<use data-text="l" xlink:href="#font_1_79" transform="matrix(12,0,0,-12,209.37786,33.956605)"/>
<use data-text="i" xlink:href="#font_1_76" transform="matrix(12,0,0,-12,212.01786,33.956605)"/>
<use data-text="n" xlink:href="#font_1_81" transform="matrix(12,0,0,-12,214.65785,33.956605)"/>
<use data-text="e" xlink:href="#font_1_72" transform="matrix(12,0,0,-12,220.65785,33.956605)"/>
<path transform="matrix(1,0,0,-1,-2.98015,540)" stroke-width="1.5" stroke-linecap="butt" stroke-dasharray="6,4.5" stroke-miterlimit="8" stroke-linejoin="miter" fill="none" stroke="#000000" d="M285.18 534.54H469.02V461.33998H285.18Z"/>
<g clip-path="url(#clip_7)">
<path transform="matrix(.0153929,0,0,.0153819,315.4216,21.154515)" d="M0 0C4.608-34.304 2.048-65.024-8.192-91.136-19.059-118.826-38.887-142.079-64.512-157.184-111.616-186.368-183.808-197.632-280.576-190.464-296.726-189.467-309.753-176.875-311.296-160.768L-381.44 453.12C-383.419 471.5-370.124 488.005-351.744 489.984-333.364 491.963-316.859 478.668-314.88 460.288L-283.136 182.784C-267.776 183.296-253.44 183.808-239.616 183.296L-169.472 330.752C-150.528 370.688-130.048 409.6-108.032 448L-93.696 473.088C-87.552 483.328-76.8 489.984-64.512 489.984-46.026 490.082-30.961 475.176-30.862 456.691-30.831 450.767-32.372 444.941-35.328 439.808L-49.664 414.72C-71.168 377.856-90.624 340.48-109.056 302.08L-169.472 175.616C-141.312 169.472-116.736 160.768-95.232 148.48-40.96 117.76-9.216 68.096 0 0M-128.512 91.136C-163.328 111.104-212.48 119.808-275.968 117.248L-248.32-125.44C-180.224-128-130.56-119.808-99.84-100.352-85.504-91.648-75.776-79.872-70.144-66.048-64-50.688-62.464-31.744-66.048-8.704-72.192 37.376-93.184 70.656-128.512 91.136M379.904 197.12C374.08 176.767 364.532 157.671 351.744 140.8 320 99.328 275.456 78.336 217.6 78.336 156.16 78.336 105.984 98.304 66.56 138.752 29.184 177.152 8.192 226.304 3.584 286.72-1.024 348.16 11.776 398.336 43.008 436.736 75.776 477.184 122.88 497.664 184.832 497.664 227.328 497.664 263.68 488.448 294.4 469.504 321.536 452.608 345.088 427.52 365.568 394.24 368.422 389.206 370.167 383.62 370.688 377.856 371.368 368.442 366.851 359.409 358.912 354.304 351.371 349.173 342.432 346.491 333.312 346.624 319.488 346.624 308.736 353.792 301.056 368.128 287.744 393.216 272.384 411.136 255.488 422.912 237.056 435.2 215.04 441.344 188.928 441.344 153.088 441.344 124.928 430.08 104.96 407.04 83.968 382.976 73.728 349.184 74.24 305.152H329.216C348.672 305.152 363.008 300.544 372.224 291.84 380.416 283.648 385.536 270.336 387.072 251.392 387.622 233.033 385.201 214.707 379.904 197.12M321.024 238.592C320.512 243.712 317.952 246.272 312.32 246.272H88.064C96.768 214.528 112.64 189.44 135.168 171.52 158.208 153.088 186.368 143.36 219.648 143.36 249.344 143.36 272.384 151.552 290.304 167.936 306.176 182.784 315.904 202.752 320.512 228.864 321.024 232.448 321.024 235.52 321.024 238.592" fill="#69c0ff"/>
</g>
<use data-text="R" xlink:href="#font_1_53" transform="matrix(12,0,0,-12,296.65336,50.48349)"/>
<use data-text="e" xlink:href="#font_1_72" transform="matrix(12,0,0,-12,303.85334,50.48349)"/>
<use data-text="q" xlink:href="#font_1_84" transform="matrix(12,0,0,-12,309.6133,50.48349)"/>
<use data-text="u" xlink:href="#font_1_88" transform="matrix(12,0,0,-12,315.6133,50.48349)"/>
<use data-text="i" xlink:href="#font_1_76" transform="matrix(12,0,0,-12,321.6133,50.48349)"/>
<use data-text="r" xlink:href="#font_1_85" transform="matrix(12,0,0,-12,324.2533,50.48349)"/>
<use data-text="e" xlink:href="#font_1_72" transform="matrix(12,0,0,-12,328.81333,50.48349)"/>
<use data-text="S" xlink:href="#font_1_54" transform="matrix(12,0,0,-12,287.17335,60.563478)"/>
<use data-text="t" xlink:href="#font_1_87" transform="matrix(12,0,0,-12,292.69334,60.563478)"/>
<use data-text="a" xlink:href="#font_1_68" transform="matrix(12,0,0,-12,296.65333,60.563478)"/>
<use data-text="t" xlink:href="#font_1_87" transform="matrix(12,0,0,-12,301.81333,60.563478)"/>
<use data-text="e" xlink:href="#font_1_72" transform="matrix(12,0,0,-12,305.77333,60.563478)"/>
<use data-text="m" xlink:href="#font_1_80" transform="matrix(12,0,0,-12,311.53334,60.563478)"/>
<use data-text="e" xlink:href="#font_1_72" transform="matrix(12,0,0,-12,320.77333,60.563478)"/>
<use data-text="n" xlink:href="#font_1_81" transform="matrix(12,0,0,-12,326.53334,60.563478)"/>
<use data-text="t" xlink:href="#font_1_87" transform="matrix(12,0,0,-12,332.53334,60.563478)"/>
<use data-text="&amp;" xlink:href="#font_1_9" transform="matrix(12,0,0,-12,336.49333,60.563478)"/>
<use data-text="M" xlink:href="#font_1_48" transform="matrix(12,0,0,-12,295.21336,70.64346)"/>
<use data-text="o" xlink:href="#font_1_82" transform="matrix(12,0,0,-12,304.57337,70.64346)"/>
<use data-text="d" xlink:href="#font_1_71" transform="matrix(12,0,0,-12,311.17335,70.64346)"/>
<use data-text="i" xlink:href="#font_1_76" transform="matrix(12,0,0,-12,317.29335,70.64346)"/>
<use data-text="f" xlink:href="#font_1_73" transform="matrix(12,0,0,-12,319.93336,70.64346)"/>
<use data-text="i" xlink:href="#font_1_76" transform="matrix(12,0,0,-12,322.93336,70.64346)"/>
<use data-text="e" xlink:href="#font_1_72" transform="matrix(12,0,0,-12,325.57337,70.64346)"/>
<use data-text="r" xlink:href="#font_1_85" transform="matrix(12,0,0,-12,331.33338,70.64346)"/>
<g clip-path="url(#clip_8)">
<path transform="matrix(.0291531,0,0,.029249,326.52217,18.540749)" d="M0 0-198.02-198.02C-206.012-206.012-218.977-206.012-226.969-198.02-234.961-190.028-234.961-177.073-226.969-169.081L-63.885-5.997H-279.68V-271.197C-279.68-282.504-288.839-291.663-300.146-291.663H-708.241C-719.548-291.663-728.707-282.504-728.707-271.197V667.431C-728.707 678.728-719.548 687.897-708.241 687.897H-14.48C-3.172 687.897 5.986 678.728 5.986 667.431V14.469C5.986 9.046 3.837 3.837 0 0M-34.946 646.965H-687.775V-250.731H-320.612V14.469C-320.612 25.777-311.443 34.935-300.146 34.935H-34.946Z"/>
</g>
<use data-text="I" xlink:href="#font_1_44" transform="matrix(12,0,0,-12,374.28944,55.821687)"/>
<use data-text="F" xlink:href="#font_1_41" transform="matrix(12,0,0,-12,377.28944,55.821687)"/>
<use data-text="S" xlink:href="#font_1_54" transform="matrix(12,0,0,-12,354.00944,65.90167)"/>
<use data-text="t" xlink:href="#font_1_87" transform="matrix(12,0,0,-12,359.52943,65.90167)"/>
<use data-text="a" xlink:href="#font_1_68" transform="matrix(12,0,0,-12,363.4894,65.90167)"/>
<use data-text="t" xlink:href="#font_1_87" transform="matrix(12,0,0,-12,368.6494,65.90167)"/>
<use data-text="e" xlink:href="#font_1_72" transform="matrix(12,0,0,-12,372.6094,65.90167)"/>
<use data-text="m" xlink:href="#font_1_80" transform="matrix(12,0,0,-12,378.36943,65.90167)"/>
<use data-text="e" xlink:href="#font_1_72" transform="matrix(12,0,0,-12,387.6094,65.90167)"/>
<use data-text="n" xlink:href="#font_1_81" transform="matrix(12,0,0,-12,393.36943,65.90167)"/>
<use data-text="t" xlink:href="#font_1_87" transform="matrix(12,0,0,-12,399.36943,65.90167)"/>
<path transform="matrix(1,0,0,-1,394.63984,32.820009)" stroke-width="1.5" stroke-linecap="butt" stroke-miterlimit="8" stroke-linejoin="miter" fill="none" stroke="#000000" d="M0 0H14.528"/>
<path transform="matrix(1,0,0,-1,408.16786,29.819794)" d="M0 0 6-3 0-6Z" fill-rule="evenodd"/>
<use data-text="R" xlink:href="#font_1_53" transform="matrix(12,0,0,-12,410.89985,55.301607)"/>
<use data-text="e" xlink:href="#font_1_72" transform="matrix(12,0,0,-12,418.09986,55.301607)"/>
<use data-text="v" xlink:href="#font_1_89" transform="matrix(12,0,0,-12,423.73988,55.301607)"/>
<use data-text="e" xlink:href="#font_1_72" transform="matrix(12,0,0,-12,428.77989,55.301607)"/>
<use data-text="r" xlink:href="#font_1_85" transform="matrix(12,0,0,-12,434.5399,55.301607)"/>
<use data-text="s" xlink:href="#font_1_86" transform="matrix(12,0,0,-12,439.3399,55.301607)"/>
<use data-text="e" xlink:href="#font_1_72" transform="matrix(12,0,0,-12,443.8999,55.301607)"/>
<use data-text=" " xlink:href="#font_1_3" transform="matrix(12,0,0,-12,449.6599,55.301607)"/>
<use data-text="I" xlink:href="#font_1_44" transform="matrix(12,0,0,-12,453.0199,55.301607)"/>
<use data-text="F" xlink:href="#font_1_41" transform="matrix(12,0,0,-12,456.0199,55.301607)"/>
<use data-text="S" xlink:href="#font_1_54" transform="matrix(12,0,0,-12,411.61985,65.38159)"/>
<use data-text="t" xlink:href="#font_1_87" transform="matrix(12,0,0,-12,417.13984,65.38159)"/>
<use data-text="a" xlink:href="#font_1_68" transform="matrix(12,0,0,-12,421.09983,65.38159)"/>
<use data-text="t" xlink:href="#font_1_87" transform="matrix(12,0,0,-12,426.25984,65.38159)"/>
<use data-text="e" xlink:href="#font_1_72" transform="matrix(12,0,0,-12,430.21983,65.38159)"/>
<use data-text="m" xlink:href="#font_1_80" transform="matrix(12,0,0,-12,435.97984,65.38159)"/>
<use data-text="e" xlink:href="#font_1_72" transform="matrix(12,0,0,-12,445.21983,65.38159)"/>
<use data-text="n" xlink:href="#font_1_81" transform="matrix(12,0,0,-12,450.97984,65.38159)"/>
<use data-text="t" xlink:href="#font_1_87" transform="matrix(12,0,0,-12,456.97984,65.38159)"/>
<g clip-path="url(#clip_9)">
<path transform="matrix(.0291531,0,0,.0291324,389.52217,21.624268)" d="M0 0-198.02-198.02C-206.012-206.012-218.977-206.012-226.969-198.02-234.961-190.028-234.961-177.073-226.969-169.081L-63.885-5.997H-279.68V-271.197C-279.68-282.504-288.839-291.663-300.146-291.663H-708.241C-719.548-291.663-728.707-282.504-728.707-271.197V667.431C-728.707 678.728-719.548 687.897-708.241 687.897H-14.48C-3.172 687.897 5.986 678.728 5.986 667.431V14.469C5.986 9.046 3.837 3.837 0 0M-34.946 646.965H-687.775V-250.731H-320.612V14.469C-320.612 25.777-311.443 34.935-300.146 34.935H-34.946Z"/>
</g>
<g clip-path="url(#clip_10)">
<path transform="matrix(.2397597,0,0,.2398936,432.6323,26.516419)" d="M0 0H-20V-20H-18V-4.312C-18-4.307-17.996-4.303-17.991-4.303-17.986-4.303-17.982-4.307-17.982-4.312-7.865-21.428 14.211-27.102 31.327-16.986 48.443-6.869 54.117 15.208 44.001 32.323 33.884 49.439 11.808 55.114-5.308 44.997-7.605 43.639-9.744 42.031-11.686 40.2L-10.314 38.745C3.349 51.632 24.873 51.003 37.76 37.34 50.647 23.677 50.018 2.153 36.355-10.734 22.692-23.621 1.168-22.992-11.719-9.329-13.788-7.136-15.555-4.677-16.976-2.018-16.979-2.013-16.977-2.007-16.972-2.004-16.971-2.003-16.969-2.003-16.967-2.003H0Z"/>
<path transform="matrix(.2397597,0,0,.2398936,432.63236,26.516297)" stroke-width="6.194" stroke-linecap="butt" stroke-miterlimit="4" stroke-linejoin="miter" fill="none" stroke="#000000" d="M0 0H-20V-20H-18V-4.312C-18-4.307-17.996-4.303-17.991-4.303-17.986-4.303-17.982-4.307-17.982-4.312-7.865-21.428 14.211-27.102 31.327-16.986 48.443-6.869 54.117 15.208 44.001 32.323 33.884 49.439 11.808 55.114-5.308 44.997-7.605 43.639-9.744 42.031-11.686 40.2L-10.314 38.745C3.349 51.632 24.873 51.003 37.76 37.34 50.647 23.677 50.018 2.153 36.355-10.734 22.692-23.621 1.168-22.992-11.719-9.329-13.788-7.136-15.555-4.677-16.976-2.018-16.979-2.013-16.977-2.007-16.972-2.004-16.971-2.003-16.969-2.003-16.967-2.003H0V0Z"/>
</g>
<use data-text="I" xlink:href="#font_11_44" transform="matrix(12,0,0,-12,372.94355,34.28949)"/>
<use data-text="F" xlink:href="#font_11_41" transform="matrix(12,0,0,-12,376.90354,34.28949)"/>
<path transform="matrix(1,0,0,-1,-2.98015,540)" stroke-width="1.5" stroke-linecap="butt" stroke-dasharray="6,4.5" stroke-miterlimit="8" stroke-linejoin="miter" fill="none" stroke="#00b0f0" d="M352.62 530.58H469.02V466.14H352.62Z"/>
<path transform="matrix(1,0,0,-1,260.11985,37.98001)" stroke-width="1.5" stroke-linecap="butt" stroke-miterlimit="8" stroke-linejoin="miter" fill="none" stroke="#000000" d="M0 0H12.701"/>
<path transform="matrix(1,0,0,-1,271.82066,34.979799)" d="M0 0 6-3 0-6Z" fill-rule="evenodd"/>
<path transform="matrix(1,0,0,-1,444.19984,84.17999)" stroke-width="1.5" stroke-linecap="butt" stroke-miterlimit="8" stroke-linejoin="miter" fill="none" stroke="#000000" d="M0 0V-19"/>
<path transform="matrix(1,0,0,-1,447.20014,102.180118)" d="M0 0-3-6-6 0Z" fill-rule="evenodd"/>
<use data-text="E" xlink:href="#font_1_40" transform="matrix(12,0,0,-12,385.25013,91.66101)"/>
<use data-text="x" xlink:href="#font_1_91" transform="matrix(12,0,0,-12,391.25013,91.66101)"/>
<use data-text="p" xlink:href="#font_1_83" transform="matrix(12,0,0,-12,397.25013,91.66101)"/>
<use data-text="r" xlink:href="#font_1_85" transform="matrix(12,0,0,-12,403.25013,91.66101)"/>
<use data-text="e" xlink:href="#font_1_72" transform="matrix(12,0,0,-12,407.81016,91.66101)"/>
<use data-text="s" xlink:href="#font_1_86" transform="matrix(12,0,0,-12,413.57014,91.66101)"/>
<use data-text="s" xlink:href="#font_1_86" transform="matrix(12,0,0,-12,418.13014,91.66101)"/>
<use data-text="i" xlink:href="#font_1_76" transform="matrix(12,0,0,-12,422.69013,91.66101)"/>
<use data-text="o" xlink:href="#font_1_82" transform="matrix(12,0,0,-12,425.3301,91.66101)"/>
<use data-text="n" xlink:href="#font_1_81" transform="matrix(12,0,0,-12,431.9301,91.66101)"/>
<use data-text="P" xlink:href="#font_1_51" transform="matrix(12,0,0,-12,385.97013,101.741)"/>
<use data-text="r" xlink:href="#font_1_85" transform="matrix(12,0,0,-12,392.09013,101.741)"/>
<use data-text="o" xlink:href="#font_1_82" transform="matrix(12,0,0,-12,396.65013,101.741)"/>
<use data-text="c" xlink:href="#font_1_70" transform="matrix(12,0,0,-12,403.25013,101.741)"/>
<use data-text="e" xlink:href="#font_1_72" transform="matrix(12,0,0,-12,408.53016,101.741)"/>
<use data-text="s" xlink:href="#font_1_86" transform="matrix(12,0,0,-12,414.29014,101.741)"/>
<use data-text="s" xlink:href="#font_1_86" transform="matrix(12,0,0,-12,418.85014,101.741)"/>
<use data-text="i" xlink:href="#font_1_76" transform="matrix(12,0,0,-12,423.41014,101.741)"/>
<use data-text="n" xlink:href="#font_1_81" transform="matrix(12,0,0,-12,426.0501,101.741)"/>
<use data-text="g" xlink:href="#font_1_74" transform="matrix(12,0,0,-12,432.0501,101.741)"/>
<g clip-path="url(#clip_12)">
<path transform="matrix(.0276372,0,0,.0276175,452.49446,136.91336)" d="M0 0H-640C-676.267 0-704-27.733-704-64V-832C-704-868.267-676.267-896-640-896H0C36.268-896 64-868.267 64-832V-64C64-27.733 36.268 0 0 0M-640-853.333C-652.8-853.333-661.333-844.8-661.333-832V-64C-661.333-51.2-652.8-42.667-640-42.667H0C12.801-42.667 21.334-51.2 21.334-64V-832C21.334-844.8 12.801-853.333 0-853.333Z" fill="#303030"/>
<path transform="matrix(.0276372,0,0,.0276175,448.9569,128.66495)" d="M0 0H-384C-396.8 0-405.333-8.533-405.333-21.333-405.333-34.133-396.8-42.666-384-42.666H0C12.8-42.666 21.333-34.133 21.333-21.333 21.333-8.533 12.8 0 0 0M-170.667 128H-384C-396.8 128-405.333 119.467-405.333 106.667-405.333 93.867-396.8 85.334-384 85.334H-170.667C-157.867 85.334-149.333 93.867-149.333 106.667-149.333 119.467-157.867 128-170.667 128M0-170.666H-384C-396.8-170.666-405.333-179.2-405.333-192V-405.333C-405.333-418.133-396.8-426.666-384-426.666H0C12.8-426.666 21.333-418.133 21.333-405.333V-192C21.333-179.2 12.8-170.666 0-170.666M-362.667-213.333H-21.332978V-384H-362.667Z" fill="#303030"/>
</g>
<use data-text="P" xlink:href="#font_1_51" transform="matrix(12,0,0,-12,417.54005,147.5264)"/>
<use data-text="r" xlink:href="#font_1_85" transform="matrix(12,0,0,-12,423.66004,147.5264)"/>
<use data-text="e" xlink:href="#font_1_72" transform="matrix(12,0,0,-12,428.22004,147.5264)"/>
<use data-text="l" xlink:href="#font_1_79" transform="matrix(12,0,0,-12,433.98005,147.5264)"/>
<use data-text="i" xlink:href="#font_1_76" transform="matrix(12,0,0,-12,436.62007,147.5264)"/>
<use data-text="m" xlink:href="#font_1_80" transform="matrix(12,0,0,-12,439.26008,147.5264)"/>
<use data-text="i" xlink:href="#font_1_76" transform="matrix(12,0,0,-12,448.5001,147.5264)"/>
<use data-text="n" xlink:href="#font_1_81" transform="matrix(12,0,0,-12,451.1401,147.5264)"/>
<use data-text="a" xlink:href="#font_1_68" transform="matrix(12,0,0,-12,457.1401,147.5264)"/>
<use data-text="r" xlink:href="#font_1_85" transform="matrix(12,0,0,-12,462.30009,147.5264)"/>
<use data-text="y" xlink:href="#font_1_92" transform="matrix(12,0,0,-12,467.46009,147.5264)"/>
<use data-text=" " xlink:href="#font_1_3" transform="matrix(12,0,0,-12,472.74009,147.5264)"/>
<use data-text="C" xlink:href="#font_1_38" transform="matrix(12,0,0,-12,431.70005,157.60639)"/>
<use data-text="o" xlink:href="#font_1_82" transform="matrix(12,0,0,-12,440.22007,157.60639)"/>
<use data-text="d" xlink:href="#font_1_71" transform="matrix(12,0,0,-12,446.82008,157.60639)"/>
<use data-text="e" xlink:href="#font_1_72" transform="matrix(12,0,0,-12,452.94007,157.60639)"/>
<use data-text="C" xlink:href="#font_1_38" transform="matrix(12,0,0,-12,427.26005,167.68637)"/>
<use data-text="h" xlink:href="#font_1_75" transform="matrix(12,0,0,-12,435.78004,167.68637)"/>
<use data-text="e" xlink:href="#font_1_72" transform="matrix(12,0,0,-12,441.78004,167.68637)"/>
<use data-text="c" xlink:href="#font_1_70" transform="matrix(12,0,0,-12,447.54005,167.68637)"/>
<use data-text="k" xlink:href="#font_1_78" transform="matrix(12,0,0,-12,452.82005,167.68637)"/>
<use data-text="s" xlink:href="#font_1_86" transform="matrix(12,0,0,-12,458.58006,167.68637)"/>
<g clip-path="url(#clip_13)">
<path transform="matrix(.0276372,0,0,.0276175,369.09437,128.99341)" d="M0 0H-640C-676.267 0-704-27.733-704-64V-832C-704-868.267-676.267-896-640-896H0C36.267-896 64-868.267 64-832V-64C64-27.733 36.267 0 0 0M-640-853.333C-652.8-853.333-661.333-844.8-661.333-832V-64C-661.333-51.2-652.8-42.667-640-42.667H0C12.8-42.667 21.333-51.2 21.333-64V-832C21.333-844.8 12.8-853.333 0-853.333Z" fill="#303030"/>
<path transform="matrix(.0276372,0,0,.0276175,365.55683,120.744968)" d="M0 0H-384C-396.8 0-405.333-8.533-405.333-21.333-405.333-34.133-396.8-42.666-384-42.666H0C12.8-42.666 21.333-34.133 21.333-21.333 21.333-8.533 12.8 0 0 0M-170.667 128H-384C-396.8 128-405.333 119.467-405.333 106.667-405.333 93.867-396.8 85.334-384 85.334H-170.667C-157.867 85.334-149.333 93.867-149.333 106.667-149.333 119.467-157.867 128-170.667 128M0-170.666H-384C-396.8-170.666-405.333-179.2-405.333-192V-405.333C-405.333-418.133-396.8-426.666-384-426.666H0C12.8-426.666 21.333-418.133 21.333-405.333V-192C21.333-179.2 12.8-170.666 0-170.666M-362.667-213.333H-21.332978V-384H-362.667Z" fill="#303030"/>
</g>
<use data-text="C" xlink:href="#font_1_38" transform="matrix(12,0,0,-12,346.82826,138.4714)"/>
<use data-text="o" xlink:href="#font_1_82" transform="matrix(12,0,0,-12,355.34825,138.4714)"/>
<use data-text="d" xlink:href="#font_1_71" transform="matrix(12,0,0,-12,361.94825,138.4714)"/>
<use data-text="e" xlink:href="#font_1_72" transform="matrix(12,0,0,-12,368.06825,138.4714)"/>
<use data-text="C" xlink:href="#font_1_38" transform="matrix(12,0,0,-12,342.38825,148.55139)"/>
<use data-text="h" xlink:href="#font_1_75" transform="matrix(12,0,0,-12,350.90824,148.55139)"/>
<use data-text="e" xlink:href="#font_1_72" transform="matrix(12,0,0,-12,356.90824,148.55139)"/>
<use data-text="c" xlink:href="#font_1_70" transform="matrix(12,0,0,-12,362.66825,148.55139)"/>
<use data-text="k" xlink:href="#font_1_78" transform="matrix(12,0,0,-12,367.94825,148.55139)"/>
<use data-text="s" xlink:href="#font_1_86" transform="matrix(12,0,0,-12,373.70826,148.55139)"/>
<path transform="matrix(1,0,0,-1,429.16096,127.380008)" stroke-width="1.5" stroke-linecap="butt" stroke-miterlimit="8" stroke-linejoin="miter" fill="none" stroke="#000000" d="M0 0H-37.321"/>
<path transform="matrix(1,0,0,-1,392.83964,124.37979)" d="M0 0-6-3 0-6Z" fill-rule="evenodd"/>
<use data-text="A" xlink:href="#font_1_36" transform="matrix(12,0,0,-12,396.97084,115.8457)"/>
<use data-text="l" xlink:href="#font_1_79" transform="matrix(12,0,0,-12,405.0108,115.8457)"/>
<use data-text="i" xlink:href="#font_1_76" transform="matrix(12,0,0,-12,407.65083,115.8457)"/>
<use data-text="a" xlink:href="#font_1_68" transform="matrix(12,0,0,-12,410.29084,115.8457)"/>
<use data-text="s" xlink:href="#font_1_86" transform="matrix(12,0,0,-12,415.4508,115.8457)"/>
<use data-text=" " xlink:href="#font_1_3" transform="matrix(12,0,0,-12,420.0108,115.8457)"/>
<use data-text="A" xlink:href="#font_1_36" transform="matrix(12,0,0,-12,387.4908,125.92569)"/>
<use data-text="d" xlink:href="#font_1_71" transform="matrix(12,0,0,-12,395.5308,125.92569)"/>
<use data-text="d" xlink:href="#font_1_71" transform="matrix(12,0,0,-12,401.5308,125.92569)"/>
<use data-text="i" xlink:href="#font_1_76" transform="matrix(12,0,0,-12,407.6508,125.92569)"/>
<use data-text="t" xlink:href="#font_1_87" transform="matrix(12,0,0,-12,410.2908,125.92569)"/>
<use data-text="i" xlink:href="#font_1_76" transform="matrix(12,0,0,-12,414.2508,125.92569)"/>
<use data-text="o" xlink:href="#font_1_82" transform="matrix(12,0,0,-12,416.8908,125.92569)"/>
<use data-text="n" xlink:href="#font_1_81" transform="matrix(12,0,0,-12,423.49079,125.92569)"/>
<g clip-path="url(#clip_14)">
<path transform="matrix(.024372,0,0,.0242382,304.8759,114.19985)" d="M0 0C4.608-34.304 2.048-65.024-8.192-91.136-19.059-118.826-38.887-142.079-64.512-157.184-111.616-186.368-183.808-197.632-280.576-190.464-296.726-189.467-309.753-176.875-311.296-160.768L-381.44 453.12C-383.419 471.5-370.124 488.005-351.744 489.984-333.364 491.963-316.859 478.668-314.88 460.288L-283.136 182.784C-267.776 183.296-253.44 183.808-239.616 183.296L-169.472 330.752C-150.528 370.688-130.048 409.6-108.032 448L-93.696 473.088C-87.552 483.328-76.8 489.984-64.512 489.984-46.026 490.082-30.961 475.176-30.862 456.691-30.831 450.767-32.372 444.941-35.328 439.808L-49.664 414.72C-71.168 377.856-90.624 340.48-109.056 302.08L-169.472 175.616C-141.312 169.472-116.736 160.768-95.232 148.48-40.96 117.76-9.216 68.096 0 0M-128.512 91.136C-163.328 111.104-212.48 119.808-275.968 117.248L-248.32-125.44C-180.224-128-130.56-119.808-99.84-100.352-85.504-91.648-75.776-79.872-70.144-66.048-64-50.688-62.464-31.744-66.048-8.704-72.192 37.376-93.184 70.656-128.512 91.136M379.904 197.12C374.08 176.767 364.532 157.671 351.744 140.8 320 99.328 275.456 78.336 217.6 78.336 156.16 78.336 105.984 98.304 66.56 138.752 29.184 177.152 8.192 226.304 3.584 286.72-1.024 348.16 11.776 398.336 43.008 436.736 75.776 477.184 122.88 497.664 184.832 497.664 227.328 497.664 263.68 488.448 294.4 469.504 321.536 452.608 345.088 427.52 365.568 394.24 368.422 389.206 370.167 383.62 370.688 377.856 371.368 368.442 366.851 359.409 358.912 354.304 351.371 349.173 342.432 346.491 333.312 346.624 319.488 346.624 308.736 353.792 301.056 368.128 287.744 393.216 272.384 411.136 255.488 422.912 237.056 435.2 215.04 441.344 188.928 441.344 153.088 441.344 124.928 430.08 104.96 407.04 83.968 382.976 73.728 349.184 74.24 305.152H329.216C348.672 305.152 363.008 300.544 372.224 291.84 380.416 283.648 385.536 270.336 387.072 251.392 387.622 233.033 385.201 214.707 379.904 197.12M321.024 238.592C320.512 243.712 317.952 246.272 312.32 246.272H88.064C96.768 214.528 112.64 189.44 135.168 171.52 158.208 153.088 186.368 143.36 219.648 143.36 249.344 143.36 272.384 151.552 290.304 167.936 306.176 182.784 315.904 202.752 320.512 228.864 321.024 232.448 321.024 235.52 321.024 238.592" fill="#69c0ff"/>
</g>
<use data-text="O" xlink:href="#font_1_50" transform="matrix(12,0,0,-12,271.38676,138.8165)"/>
<use data-text="p" xlink:href="#font_1_83" transform="matrix(12,0,0,-12,281.22676,138.8165)"/>
<use data-text="e" xlink:href="#font_1_72" transform="matrix(12,0,0,-12,287.22676,138.8165)"/>
<use data-text="n" xlink:href="#font_1_81" transform="matrix(12,0,0,-12,292.98674,138.8165)"/>
<use data-text="z" xlink:href="#font_1_93" transform="matrix(12,0,0,-12,298.98674,138.8165)"/>
<use data-text="e" xlink:href="#font_1_72" transform="matrix(12,0,0,-12,304.02674,138.8165)"/>
<use data-text="p" xlink:href="#font_1_83" transform="matrix(12,0,0,-12,309.7867,138.8165)"/>
<use data-text="p" xlink:href="#font_1_83" transform="matrix(12,0,0,-12,315.7867,138.8165)"/>
<use data-text="l" xlink:href="#font_1_79" transform="matrix(12,0,0,-12,321.7867,138.8165)"/>
<use data-text="i" xlink:href="#font_1_76" transform="matrix(12,0,0,-12,324.4267,138.8165)"/>
<use data-text="n" xlink:href="#font_1_81" transform="matrix(12,0,0,-12,327.06669,138.8165)"/>
<use data-text="F" xlink:href="#font_1_41" transform="matrix(12,0,0,-12,289.98677,148.89649)"/>
<use data-text="a" xlink:href="#font_1_68" transform="matrix(12,0,0,-12,295.62678,148.89649)"/>
<use data-text="c" xlink:href="#font_1_70" transform="matrix(12,0,0,-12,300.78678,148.89649)"/>
<use data-text="t" xlink:href="#font_1_87" transform="matrix(12,0,0,-12,306.06678,148.89649)"/>
<use data-text="s" xlink:href="#font_1_86" transform="matrix(12,0,0,-12,310.02677,148.89649)"/>
<path transform="matrix(1,0,0,-1,-2.98015,540)" stroke-width="1.5" stroke-linecap="butt" stroke-dasharray="6,4.5" stroke-miterlimit="8" stroke-linejoin="miter" fill="none" stroke="#000000" d="M271.62 447.06H384.3V378.06H271.62Z"/>
<g clip-path="url(#clip_15)">
<path transform="matrix(.0385987,0,0,.0384548,199.5133,133.12448)" d="M0 0C-26.391 0-47.796 21.397-47.796 47.789-47.796 74.186-26.397 95.591 0 95.591 26.403 95.591 47.796 74.191 47.796 47.789 47.796 21.392 26.402 0 0 0" fill="#c00000"/>
<path transform="matrix(.0385987,0,0,.0384548,199.51329,133.12448)" stroke-width=".999" stroke-linecap="butt" stroke-miterlimit="4" stroke-linejoin="miter" fill="none" stroke="#f4b183" d="M0 0C-26.391 0-47.796 21.397-47.796 47.789-47.796 74.186-26.397 95.591 0 95.591 26.403 95.591 47.796 74.191 47.796 47.789 47.796 21.392 26.402 0 0 0Z"/>
<path transform="matrix(.0385987,0,0,.0384548,199.51328,109.909549)" d="M0 0C-245.972 0-446.079 200.102-446.079 446.078-446.079 692.057-245.972 892.164 0 892.164 245.984 892.164 446.079 692.058 446.079 446.078 446.079 200.102 245.978 0 0 0M0 828.149C-210.674 828.149-382.064 656.729-382.064 446.079-382.064 235.399-210.674 64.016 0 64.016 210.644 64.016 382.07 235.4 382.07 446.079 382.07 656.729 210.643 828.149 0 828.149" fill="#c00000"/>
<path transform="matrix(.0385987,0,0,.0384548,199.51326,109.90961)" stroke-width=".999" stroke-linecap="butt" stroke-miterlimit="4" stroke-linejoin="miter" fill="none" stroke="#f4b183" d="M0 0C-245.972 0-446.079 200.102-446.079 446.078-446.079 692.057-245.972 892.164 0 892.164 245.984 892.164 446.079 692.058 446.079 446.078 446.079 200.102 245.978 0 0 0ZM0 828.149C-210.674 828.149-382.064 656.729-382.064 446.079-382.064 235.399-210.674 64.016 0 64.016 210.644 64.016 382.07 235.4 382.07 446.079 382.07 656.729 210.643 828.149 0 828.149Z"/>
<path transform="matrix(.0385987,0,0,.0384548,199.39502,130.14984)" d="M0 0C21.17 0 38.331-17.161 38.331-38.331V-334.041C38.331-355.212 21.17-372.372 0-372.372-21.171-372.372-38.331-355.211-38.331-334.041V-38.331C-38.332-17.161-21.171 0 0 0" fill="#c00000"/>
<path transform="matrix(.0385987,0,0,.0384548,199.395,130.1499)" stroke-width=".999" stroke-linecap="butt" stroke-miterlimit="4" stroke-linejoin="miter" fill="none" stroke="#f4b183" d="M0 0C21.17 0 38.331-17.161 38.331-38.331V-334.041C38.331-355.212 21.17-372.372 0-372.372-21.171-372.372-38.331-355.211-38.331-334.041V-38.331C-38.332-17.161-21.171 0 0 0Z"/>
</g>
<use data-text="W" xlink:href="#font_1_58" transform="matrix(12,0,0,-12,177.57555,156.03159)"/>
<use data-text="a" xlink:href="#font_1_68" transform="matrix(12,0,0,-12,189.33554,156.03159)"/>
<use data-text="r" xlink:href="#font_1_85" transform="matrix(12,0,0,-12,194.49553,156.03159)"/>
<use data-text="n" xlink:href="#font_1_81" transform="matrix(12,0,0,-12,199.29553,156.03159)"/>
<use data-text="i" xlink:href="#font_1_76" transform="matrix(12,0,0,-12,205.29553,156.03159)"/>
<use data-text="n" xlink:href="#font_1_81" transform="matrix(12,0,0,-12,207.93553,156.03159)"/>
<use data-text="g" xlink:href="#font_1_74" transform="matrix(12,0,0,-12,213.93553,156.03159)"/>
<use data-text="s" xlink:href="#font_1_86" transform="matrix(12,0,0,-12,219.09552,156.03159)"/>
<path transform="matrix(1,0,0,-1,265.65245,127.380008)" stroke-width="1.5" stroke-linecap="butt" stroke-miterlimit="8" stroke-linejoin="miter" fill="none" stroke="#000000" d="M0 0H-39.653"/>
<path transform="matrix(1,0,0,-1,226.99976,124.37979)" d="M0 0-6-3 0-6Z" fill-rule="evenodd"/>
<use data-text="S" xlink:href="#font_1_54" transform="matrix(12,0,0,-12,221.38655,114.8291)"/>
<use data-text="i" xlink:href="#font_1_76" transform="matrix(12,0,0,-12,226.90654,114.8291)"/>
<use data-text="m" xlink:href="#font_1_80" transform="matrix(12,0,0,-12,229.54654,114.8291)"/>
<use data-text="i" xlink:href="#font_1_76" transform="matrix(12,0,0,-12,238.78653,114.8291)"/>
<use data-text="l" xlink:href="#font_1_79" transform="matrix(12,0,0,-12,241.42653,114.8291)"/>
<use data-text="a" xlink:href="#font_1_68" transform="matrix(12,0,0,-12,244.06653,114.8291)"/>
<use data-text="r" xlink:href="#font_1_85" transform="matrix(12,0,0,-12,249.22653,114.8291)"/>
<use data-text="i" xlink:href="#font_1_76" transform="matrix(12,0,0,-12,254.02654,114.8291)"/>
<use data-text="t" xlink:href="#font_1_87" transform="matrix(12,0,0,-12,256.66654,114.8291)"/>
<use data-text="y" xlink:href="#font_1_92" transform="matrix(12,0,0,-12,260.62654,114.8291)"/>
<use data-text=" " xlink:href="#font_1_3" transform="matrix(12,0,0,-12,265.90653,114.8291)"/>
<use data-text="M" xlink:href="#font_1_48" transform="matrix(12,0,0,-12,228.70656,124.90909)"/>
<use data-text="a" xlink:href="#font_1_68" transform="matrix(12,0,0,-12,238.06656,124.90909)"/>
<use data-text="t" xlink:href="#font_1_87" transform="matrix(12,0,0,-12,243.22657,124.90909)"/>
<use data-text="c" xlink:href="#font_1_70" transform="matrix(12,0,0,-12,247.18657,124.90909)"/>
<use data-text="h" xlink:href="#font_1_75" transform="matrix(12,0,0,-12,252.46657,124.90909)"/>
<path transform="matrix(1,0,0,-1,-2.98015,540)" stroke-width="1.5" stroke-linecap="butt" stroke-dasharray="6,4.5" stroke-miterlimit="8" stroke-linejoin="miter" fill="none" stroke="#000000" d="M12.3 447.06H157.74V378.06H12.3Z"/>
<use data-text="H" xlink:href="#font_1_43" transform="matrix(12,0,0,-12,18.65715,134.29291)"/>
<use data-text="a" xlink:href="#font_1_68" transform="matrix(12,0,0,-12,27.417149,134.29291)"/>
<use data-text="n" xlink:href="#font_1_81" transform="matrix(12,0,0,-12,32.57715,134.29291)"/>
<use data-text="d" xlink:href="#font_1_71" transform="matrix(12,0,0,-12,38.57715,134.29291)"/>
<use data-text="l" xlink:href="#font_1_79" transform="matrix(12,0,0,-12,44.69715,134.29291)"/>
<use data-text="i" xlink:href="#font_1_76" transform="matrix(12,0,0,-12,47.33715,134.29291)"/>
<use data-text="n" xlink:href="#font_1_81" transform="matrix(12,0,0,-12,49.97715,134.29291)"/>
<use data-text="g" xlink:href="#font_1_74" transform="matrix(12,0,0,-12,55.97715,134.29291)"/>
<use data-text=" " xlink:href="#font_1_3" transform="matrix(12,0,0,-12,61.137155,134.29291)"/>
<use data-text="t" xlink:href="#font_1_87" transform="matrix(12,0,0,-12,64.37715,134.29291)"/>
<use data-text="h" xlink:href="#font_1_75" transform="matrix(12,0,0,-12,68.33715,134.29291)"/>
<use data-text="e" xlink:href="#font_1_72" transform="matrix(12,0,0,-12,74.33715,134.29291)"/>
<use data-text=" " xlink:href="#font_1_3" transform="matrix(12,0,0,-12,80.09715,134.29291)"/>
<use data-text="S" xlink:href="#font_1_54" transform="matrix(12,0,0,-12,13.97715,144.3729)"/>
<use data-text="c" xlink:href="#font_1_70" transform="matrix(12,0,0,-12,19.49715,144.3729)"/>
<use data-text="e" xlink:href="#font_1_72" transform="matrix(12,0,0,-12,24.77715,144.3729)"/>
<use data-text="n" xlink:href="#font_1_81" transform="matrix(12,0,0,-12,30.53715,144.3729)"/>
<use data-text="a" xlink:href="#font_1_68" transform="matrix(12,0,0,-12,36.53715,144.3729)"/>
<use data-text="r" xlink:href="#font_1_85" transform="matrix(12,0,0,-12,41.69715,144.3729)"/>
<use data-text="i" xlink:href="#font_1_76" transform="matrix(12,0,0,-12,46.49715,144.3729)"/>
<use data-text="o" xlink:href="#font_1_82" transform="matrix(12,0,0,-12,49.13715,144.3729)"/>
<use data-text="s" xlink:href="#font_1_86" transform="matrix(12,0,0,-12,55.73595,144.3729)"/>
<use data-text=" " xlink:href="#font_1_3" transform="matrix(12,0,0,-12,60.29595,144.3729)"/>
<use data-text="w" xlink:href="#font_1_90" transform="matrix(12,0,0,-12,63.655954,144.3729)"/>
<use data-text="i" xlink:href="#font_1_76" transform="matrix(12,0,0,-12,72.29595,144.3729)"/>
<use data-text="t" xlink:href="#font_1_87" transform="matrix(12,0,0,-12,74.93595,144.3729)"/>
<use data-text="h" xlink:href="#font_1_75" transform="matrix(12,0,0,-12,78.89596,144.3729)"/>
<use data-text=" " xlink:href="#font_1_3" transform="matrix(12,0,0,-12,84.89596,144.3729)"/>
<use data-text="E" xlink:href="#font_1_40" transform="matrix(12,0,0,-12,20.21715,154.45288)"/>
<use data-text="m" xlink:href="#font_1_80" transform="matrix(12,0,0,-12,26.21715,154.45288)"/>
<use data-text="p" xlink:href="#font_1_83" transform="matrix(12,0,0,-12,35.45715,154.45288)"/>
<use data-text="t" xlink:href="#font_1_87" transform="matrix(12,0,0,-12,41.45715,154.45288)"/>
<use data-text="y" xlink:href="#font_1_92" transform="matrix(12,0,0,-12,45.41715,154.45288)"/>
<use data-text=" " xlink:href="#font_1_3" transform="matrix(12,0,0,-12,50.69715,154.45288)"/>
<use data-text="F" xlink:href="#font_1_41" transform="matrix(12,0,0,-12,54.05715,154.45288)"/>
<use data-text="a" xlink:href="#font_1_68" transform="matrix(12,0,0,-12,59.69715,154.45288)"/>
<use data-text="c" xlink:href="#font_1_70" transform="matrix(12,0,0,-12,64.85715,154.45288)"/>
<use data-text="t" xlink:href="#font_1_87" transform="matrix(12,0,0,-12,70.137149,154.45288)"/>
<use data-text="s" xlink:href="#font_1_86" transform="matrix(12,0,0,-12,74.097148,154.45288)"/>
<g clip-path="url(#clip_16)">
<path transform="matrix(.0262378,0,0,.0261027,56.19925,122.41409)" d="M0 0H-626.4C-658.6 0-684.8-26.2-684.8-58.4V-428.1C-684.8-460.3-658.6-486.5-626.4-486.5H0C32.2-486.5 58.4-460.3 58.4-428.1V-58.5C58.4-26.2 32.2 0 0 0M-626.4-443.8C-635.1-443.8-642.2-436.7-642.2-428V-58.4C-642.2-49.7-635.1-42.7-626.4-42.7H0C8.5-42.7 15.8-49.9 15.8-58.4V-428.1C15.8-436.6 8.6-443.9 0-443.9H-626.4Z" fill="#2c49ff"/>
<path transform="matrix(.0262378,0,0,.0261026,39.12894,110.52427)" d="M0 0C-17.7 0-33.7-12.2-37.8-30.1L-58.3-121C-63-141.8-49.8-162.5-29-167.2L620.6-313.5C630.5-315.8 640.9-314 649.7-308.5 658.5-303 664.5-294.4 666.8-284.3L687.3-193.4C689.6-183.4 687.8-173.1 682.3-164.3 676.8-155.5 668.2-149.4 658.1-147.2L8.4-.9C5.6-.3 2.8 0 0 0M-15.8-126.5 2.9-43.4 645.8-188.2 626-271ZM-1.4 137H676.19998V179.7H-1.4Z" fill="#2c49ff"/>
<path transform="matrix(.0262378,0,0,.0261026,42.14902,114.12914)" d="M0 0 169.35-169.35 199.543-139.157 30.193 30.193ZM283.512 9.364 458.308-165.431 488.501-135.237 313.706 39.558Z" fill="#2c49ff"/>
</g>
<g clip-path="url(#clip_17)">
<path transform="matrix(.0251883,0,0,.0251704,127.80392,116.455448)" d="M0 0C0 24.5-19.9 44.4-44.4 44.4H-674C-698.5 44.4-718.4 24.5-718.4 0V-477.3C-718.4-501.8-698.5-521.7-674-521.7H-192.7V-610.5H-718.4C-767.4-610.5-807.2-570.7-807.2-521.7V44.3C-807.2 93.4-767.4 133.1-718.4 133.1H0C49 133.1 88.8 93.4 88.8 44.3V-337.8H0Z" fill="#040000"/>
<path transform="matrix(.0251883,0,0,.0251704,116.59512,108.7533)" d="M0 0 125 178.1C137.8 211.9 120.6 280 86.6 292.8 52.6 305.5 14.7 288.4 2 254.5L-97.5 48.5C-110.3 14.7-108.3-25.5-74.4-38.2-40.4-51-12.7-33.8 0 0" fill="#040000"/>
<path transform="matrix(.0251883,0,0,.0251704,117.010738,113.57344)" d="M0 0C0 0 105.3-159.7 207.3-269.7 288.6-357.3 366.6-430.6 366.6-430.6 391.2-445.9 428.7-431.2 435.7-425.4 443.6-419 459.8-388.5 442.4-359.6 442.4-359.6 375.6-272.5 298.7-189.6 194.2-77 96.6 88.7 96.6 88.7 72 115.2 30.4 116.9 3.8 92.4-22.9 67.9-24.6 26.5 0 0" fill="#040000"/>
</g>
<use data-text="V" xlink:href="#font_1_57" transform="matrix(12,0,0,-12,94.63545,135.0206)"/>
<use data-text="a" xlink:href="#font_1_68" transform="matrix(12,0,0,-12,101.115459,135.0206)"/>
<use data-text="l" xlink:href="#font_1_79" transform="matrix(12,0,0,-12,106.27546,135.0206)"/>
<use data-text="i" xlink:href="#font_1_76" transform="matrix(12,0,0,-12,108.91546,135.0206)"/>
<use data-text="d" xlink:href="#font_1_71" transform="matrix(12,0,0,-12,111.55546,135.0206)"/>
<use data-text="a" xlink:href="#font_1_68" transform="matrix(12,0,0,-12,117.67546,135.0206)"/>
<use data-text="t" xlink:href="#font_1_87" transform="matrix(12,0,0,-12,122.835468,135.0206)"/>
<use data-text="i" xlink:href="#font_1_76" transform="matrix(12,0,0,-12,126.795459,135.0206)"/>
<use data-text="n" xlink:href="#font_1_81" transform="matrix(12,0,0,-12,129.43546,135.0206)"/>
<use data-text="g" xlink:href="#font_1_74" transform="matrix(12,0,0,-12,135.43546,135.0206)"/>
<use data-text=" " xlink:href="#font_1_3" transform="matrix(12,0,0,-12,140.59546,135.0206)"/>
<use data-text="S" xlink:href="#font_1_54" transform="matrix(12,0,0,-12,97.99545,145.10059)"/>
<use data-text="e" xlink:href="#font_1_72" transform="matrix(12,0,0,-12,103.51546,145.10059)"/>
<use data-text="c" xlink:href="#font_1_70" transform="matrix(12,0,0,-12,109.27546,145.10059)"/>
<use data-text="u" xlink:href="#font_1_88" transform="matrix(12,0,0,-12,114.55546,145.10059)"/>
<use data-text="r" xlink:href="#font_1_85" transform="matrix(12,0,0,-12,120.55546,145.10059)"/>
<use data-text="i" xlink:href="#font_1_76" transform="matrix(12,0,0,-12,125.35545,145.10059)"/>
<use data-text="t" xlink:href="#font_1_87" transform="matrix(12,0,0,-12,127.99545,145.10059)"/>
<use data-text="y" xlink:href="#font_1_92" transform="matrix(12,0,0,-12,131.95546,145.10059)"/>
<use data-text=" " xlink:href="#font_1_3" transform="matrix(12,0,0,-12,137.23546,145.10059)"/>
<use data-text="C" xlink:href="#font_1_38" transform="matrix(12,0,0,-12,84.435459,155.18058)"/>
<use data-text="o" xlink:href="#font_1_82" transform="matrix(12,0,0,-12,92.95546,155.18058)"/>
<use data-text="n" xlink:href="#font_1_81" transform="matrix(12,0,0,-12,99.55546,155.18058)"/>
<use data-text="s" xlink:href="#font_1_86" transform="matrix(12,0,0,-12,105.55546,155.18058)"/>
<use data-text="e" xlink:href="#font_1_72" transform="matrix(12,0,0,-12,110.11546,155.18058)"/>
<use data-text="q" xlink:href="#font_1_84" transform="matrix(12,0,0,-12,115.875469,155.18058)"/>
<use data-text="u" xlink:href="#font_1_88" transform="matrix(12,0,0,-12,121.875469,155.18058)"/>
<use data-text="e" xlink:href="#font_1_72" transform="matrix(12,0,0,-12,127.87547,155.18058)"/>
<use data-text="n" xlink:href="#font_1_81" transform="matrix(12,0,0,-12,133.63547,155.18058)"/>
<use data-text="c" xlink:href="#font_1_70" transform="matrix(12,0,0,-12,139.63547,155.18058)"/>
<use data-text="e" xlink:href="#font_1_72" transform="matrix(12,0,0,-12,144.91547,155.18058)"/>
<path transform="matrix(1,0,0,-1,159.25986,121.70999)" d="M0 0H7.92V5.67L15.84-5.67 7.92-17.01V-11.34H0Z" fill-rule="evenodd"/>
</g>
</svg>
